<?xml version="1.0" encoding="UTF-8" standalone="no"?>
<!DOCTYPE svg PUBLIC "-//W3C//DTD SVG 1.1//EN" "http://www.w3.org/Graphics/SVG/1.1/DTD/svg11.dtd">
<svg width="100%" height="100%" viewBox="0 0 1377 1377" version="1.1" xmlns="http://www.w3.org/2000/svg" xmlns:xlink="http://www.w3.org/1999/xlink" xml:space="preserve" xmlns:serif="http://www.serif.com/" style="fill-rule:evenodd;clip-rule:evenodd;stroke-linejoin:round;stroke-miterlimit:2;">
    <g transform="matrix(1,0,0,1,-15466.5,-4966)">
        <g id="Mesa-de-trabajo2" serif:id="Mesa de trabajo2" transform="matrix(1,0,0,1,13018.7,2606.01)">
            <rect x="2447.87" y="2359.99" width="1376.06" height="1376.06" style="fill:none;"/>
            <clipPath id="_clip1">
                <rect x="2447.87" y="2359.99" width="1376.06" height="1376.06"/>
            </clipPath>
            <g clip-path="url(#_clip1)">
                <g transform="matrix(1,0,0,1,-19526.9,43.0622)">
                    <g transform="matrix(1.92927,0,0,1.92927,-15938.2,1007.72)">
                        <circle cx="20008.1" cy="1130.5" r="87.5"/>
                    </g>
                    <path d="M22938,2454.68L22938,2410.86C22938,2410.24 22938,2409.63 22938,2409.03C22938,2358.28 22979.2,2317.08 23030,2317.08C23080.7,2317.08 23121.9,2358.28 23121.9,2409.03L23122,2409.03L23122,2476.33C23169.1,2493.69 23212.2,2521.09 23248.3,2557.2C23314,2622.84 23350.9,2711.86 23350.9,2804.68L23350.9,3443.14C23350.9,3581.21 23238.9,3693.14 23100.9,3693.14L22224.8,3693.14C22086.7,3693.14 21974.8,3581.21 21974.8,3443.14L21974.8,2804.68C21974.8,2711.86 22011.7,2622.84 22077.3,2557.2C22113.5,2521.05 22156.7,2493.63 22203.8,2476.28L22203.8,2410.86C22203.8,2410.24 22203.8,2409.63 22203.8,2409.03C22203.8,2358.28 22245,2317.08 22295.7,2317.08C22346.4,2317.08 22387.6,2358.28 22387.6,2409.03L22387.8,2409.03L22387.8,2454.68L22938,2454.68ZM23107.5,2867.51C23140.7,2867.51 23167.5,2894.37 23167.5,2927.51C23167.5,3074.96 23167.5,3443.14 23167.5,3443.14C23167.5,3479.96 23137.7,3509.8 23100.9,3509.8L22224.8,3509.8C22188,3509.8 22158.1,3479.96 22158.1,3443.14C22158.1,3443.14 22158.1,3074.96 22158.1,2927.51C22158.1,2894.37 22185,2867.51 22218.1,2867.51C22397.5,2867.51 22928.2,2867.51 23107.5,2867.51Z"/>
                </g>
            </g>
        </g>
    </g>
</svg>
