<?xml version="1.0" encoding="UTF-8" standalone="no"?>
<!DOCTYPE svg PUBLIC "-//W3C//DTD SVG 1.1//EN" "http://www.w3.org/Graphics/SVG/1.1/DTD/svg11.dtd">
<svg width="100%" height="100%" viewBox="0 0 1377 1377" version="1.1" xmlns="http://www.w3.org/2000/svg" xmlns:xlink="http://www.w3.org/1999/xlink" xml:space="preserve" xmlns:serif="http://www.serif.com/" style="fill-rule:evenodd;clip-rule:evenodd;stroke-linejoin:round;stroke-miterlimit:2;">
    <g transform="matrix(1,0,0,1,-13835.5,-4966)">
        <g id="Mesa-de-trabajo2" serif:id="Mesa de trabajo2" transform="matrix(1,0,0,1,11387.6,2606.01)">
            <rect x="2447.87" y="2359.99" width="1376.06" height="1376.06" style="fill:none;"/>
            <clipPath id="_clip1">
                <rect x="2447.87" y="2359.99" width="1376.06" height="1376.06"/>
            </clipPath>
            <g clip-path="url(#_clip1)">
                <g transform="matrix(1.00208,0,0,0.997623,-24432.5,2143.41)">
                    <path d="M27436.7,1499.85C27429.7,1554.96 27383.1,1596.28 27327.8,1596.28C27184.5,1596.28 26932.7,1596.28 26932.7,1596.28C26895.3,1596.28 26860.5,1576.91 26840.8,1545.09C26821.1,1513.27 26819.2,1473.52 26835.9,1440C26974.4,1161.68 27263.3,580.932 27414.4,277.21C27432.7,240.475 27470.2,217.25 27511.2,217.25C27552.2,217.25 27589.7,240.475 27608,277.21C27759.1,580.932 28048,1161.68 28186.5,1440C28203.2,1473.52 28201.3,1513.27 28181.6,1545.09C28161.9,1576.91 28127.1,1596.28 28089.7,1596.28C28089.7,1596.28 27837.9,1596.28 27694.6,1596.28C27639.3,1596.28 27592.6,1554.96 27585.7,1499.85C27571.5,1387.22 27547.9,1199.29 27531,1065.48C27529.7,1055.46 27521.2,1047.95 27511.2,1047.95C27501.1,1047.95 27492.7,1055.46 27491.4,1065.48C27474.5,1199.29 27450.9,1387.22 27436.7,1499.85Z" style="fill:rgb(13,13,13);"/>
                </g>
            </g>
        </g>
    </g>
</svg>
