<?xml version="1.0" encoding="UTF-8" standalone="no"?>
<!DOCTYPE svg PUBLIC "-//W3C//DTD SVG 1.1//EN" "http://www.w3.org/Graphics/SVG/1.1/DTD/svg11.dtd">
<svg width="100%" height="100%" viewBox="0 0 653 369" version="1.1" xmlns="http://www.w3.org/2000/svg" xmlns:xlink="http://www.w3.org/1999/xlink" xml:space="preserve" xmlns:serif="http://www.serif.com/" style="fill-rule:evenodd;clip-rule:evenodd;stroke-linejoin:round;stroke-miterlimit:2;">
    <g transform="matrix(1,0,0,1,-3048.83,-1497.79)">
        <g id="LOGOS-UNADM---EDU" serif:id="LOGOS UNADM - EDU" transform="matrix(0.579444,0,0,1.38214,1785.64,-271.51)">
            <rect x="2180" y="1280.12" width="1126.67" height="266.887" style="fill:none;"/>
            <clipPath id="_clip1">
                <rect x="2180" y="1280.12" width="1126.67" height="266.887"/>
            </clipPath>
            <g clip-path="url(#_clip1)">
                <g transform="matrix(1.46724,0,0,0.615121,2162.28,657.6)">
                    <g>
                        <g transform="matrix(-3.06648,-3.17573,-3.17573,3.06648,90.5213,1143.02)">
                            <path d="M-0.575,-1.045C-0.281,-0.909 -0.802,-0.619 -0.639,-0.361C-0.489,-0.09 -0.362,0.289 -0.575,0.167C-0.804,0.04 -1.09,-0.416 -1.062,-0.533C-1.031,-0.651 -0.66,-1.087 -0.575,-1.045" style="fill:rgb(187,187,187);fill-opacity:0.4;fill-rule:nonzero;"/>
                        </g>
                        <g transform="matrix(-3.92196,-2.02652,-2.02652,3.92196,83.7309,1146.22)">
                            <path d="M-0.22,-0.411C0.106,-0.278 0.412,-0.084 0.4,0.07C0.389,0.228 0.002,0.142 -0.22,0.027C-0.425,-0.079 -0.776,-0.455 -0.677,-0.451C-0.58,-0.437 -0.22,-0.411 -0.22,-0.411" style="fill:rgb(187,187,187);fill-opacity:0.4;fill-rule:nonzero;"/>
                        </g>
                        <g transform="matrix(4.41459,0,0,4.41459,94.1347,1132.29)">
                            <path d="M0,-0.179C-0.114,-0.133 0.22,0.106 0.332,0.106C0.451,0.106 0.66,-0.285 0.424,-0.285C0.18,-0.285 0.304,-0.285 0,-0.179" style="fill:rgb(187,187,187);fill-opacity:0.4;fill-rule:nonzero;"/>
                        </g>
                        <g transform="matrix(4.41459,0,0,4.41459,98.7303,1329.09)">
                            <path d="M0,-47.654L0.187,-47.48C0.364,-47.303 0.657,-47.235 0.935,-47.195C1.198,-47.159 1.198,-47.369 0.994,-47.581C0.785,-47.793 0.728,-47.759 0.538,-47.793C0.364,-47.825 0.337,-48.043 -0.139,-48.043C-0.617,-48.043 -0.56,-48.322 -0.617,-48.464C-0.677,-48.607 -0.163,-48.882 -0.036,-48.846C0.079,-48.808 0.513,-48.925 0.513,-48.925C0.513,-48.925 1.298,-49.276 1.385,-49.205C1.478,-49.134 1.913,-49.276 2.132,-49.346C2.336,-49.417 2.456,-49.805 2.456,-49.805C2.456,-49.805 2.733,-49.699 2.869,-49.523C3.021,-49.346 3.35,-49.523 3.447,-49.523C3.526,-49.523 4.029,-49.409 4.029,-49.409C4.029,-49.409 4.504,-49.479 4.754,-49.514C4.988,-49.55 5.683,-49.246 5.919,-49.17C6.167,-49.099 7.414,-49.409 7.528,-49.409C7.658,-49.409 8.068,-48.781 8.465,-48.887C8.845,-48.99 9.035,-48.819 9.12,-48.781C9.209,-48.749 9.288,-48.749 9.445,-48.537C9.592,-48.322 9.747,-48.502 9.956,-48.642C10.174,-48.781 10.146,-48.925 10.146,-48.925L10.32,-48.958C10.491,-48.99 10.616,-48.887 11.125,-48.852C11.627,-48.819 11.519,-48.958 11.869,-49.099C12.225,-49.246 12.586,-48.925 12.708,-48.958C12.822,-48.99 12.982,-49.276 13.072,-49.134C13.143,-48.99 13.303,-48.711 13.303,-48.711C13.303,-48.711 13.689,-49.061 13.803,-49.061C13.931,-49.061 14.61,-48.999 14.824,-49.034C15.023,-49.069 15.509,-48.99 15.688,-48.819C15.878,-48.642 16.318,-48.675 16.555,-48.502C16.802,-48.322 17.033,-48.642 16.914,-48.711C16.802,-48.781 16.498,-49.061 16.498,-49.061C16.498,-49.061 16.055,-49.699 15.995,-49.805C15.927,-49.909 15.846,-49.909 15.718,-49.629C15.602,-49.346 15.15,-49.346 14.637,-49.313C14.143,-49.276 14.471,-49.593 13.906,-49.629C13.333,-49.667 13.537,-49.909 13.727,-49.909C13.906,-49.909 14.021,-50.333 14.083,-50.583C14.143,-50.833 14.344,-50.792 14.765,-50.757C15.178,-50.723 15.294,-50.833 15.718,-50.757C16.139,-50.688 16.112,-50.97 16.522,-50.935C16.946,-50.9 16.731,-50.833 16.976,-50.656C17.221,-50.476 17.37,-50.511 17.696,-50.333C18.022,-50.159 17.911,-50.159 18.055,-50.126C18.201,-50.088 18.712,-50.194 19.008,-50.232C19.312,-50.261 19.549,-50.297 19.695,-50.088C19.85,-49.876 19.815,-49.629 20.019,-49.455C20.236,-49.276 19.902,-50.088 19.902,-50.373C19.902,-50.656 20.333,-50.406 20.595,-50.406C20.858,-50.406 21.16,-50.511 21.228,-50.373C21.279,-50.232 20.833,-50.014 21.108,-49.699C21.379,-49.382 21.54,-49.276 21.787,-49.276C22.021,-49.276 22.569,-49.205 22.328,-48.819C22.089,-48.428 21.45,-48.464 21.252,-48.464C21.04,-48.464 20.676,-48.322 20.774,-48.11C20.858,-47.901 21.342,-48.005 21.667,-48.005C21.994,-48.005 23.015,-47.901 23.276,-48.005C23.542,-48.11 23.493,-48.537 23.189,-48.642C22.896,-48.749 23.129,-48.958 23.425,-48.887C23.727,-48.819 24.028,-48.99 23.963,-48.887C23.906,-48.781 24.001,-48.537 24.001,-48.249C24.001,-47.968 24.085,-47.793 24.294,-47.863C24.506,-47.931 24.463,-48.168 24.683,-48.203C24.878,-48.241 24.833,-48.642 24.721,-48.958C24.593,-49.276 24.506,-49.455 24.534,-49.629C24.561,-49.805 24.887,-49.838 25.074,-49.667C25.259,-49.49 25.495,-49.134 25.495,-49.134C25.495,-49.134 25.849,-48.887 25.968,-48.607C26.085,-48.322 26.117,-48.392 26.351,-48.569C26.598,-48.749 26.655,-48.711 26.859,-48.537C27.076,-48.36 26.93,-48.005 26.93,-47.901C26.93,-47.793 27.226,-47.901 27.286,-48.11C27.34,-48.322 27.576,-48.322 27.726,-48.392C27.883,-48.464 27.883,-48.887 27.883,-48.887C27.883,-48.887 27.487,-48.99 27.106,-48.958C26.712,-48.925 26.598,-48.99 26.299,-49.246C25.998,-49.49 26.18,-49.667 26.039,-49.909C25.878,-50.159 26.509,-50.297 26.892,-50.511C27.286,-50.723 27.674,-50.583 27.576,-50.055C27.487,-49.523 27.44,-49.593 27.883,-49.699C28.332,-49.805 27.851,-50.261 28.068,-50.297C28.274,-50.333 28.804,-50.441 28.992,-50.406C29.166,-50.373 30.146,-50.511 30.394,-50.511C30.627,-50.511 31.021,-50.261 31.279,-50.088C31.553,-49.909 32.271,-49.667 32.455,-49.555C32.632,-49.455 33.89,-49.246 34.004,-49.205C34.129,-49.17 34.129,-48.749 34.243,-48.392C34.362,-48.043 34.696,-48.287 34.811,-48.287C34.941,-48.287 35.343,-48.043 35.471,-47.863C35.59,-47.686 36.481,-47.548 36.481,-47.548C36.481,-47.548 36.275,-47.235 36.188,-47.127C36.087,-47.021 35.892,-46.945 35.707,-46.803C35.53,-46.662 35.321,-46.842 35.077,-47.021C34.84,-47.195 34.417,-47.303 34.333,-47.235C34.243,-47.159 34.308,-47.021 34.362,-46.91C34.417,-46.803 34.811,-46.662 35.047,-46.453C35.292,-46.241 35.234,-46.026 35.267,-45.747C35.292,-45.462 35.017,-45.855 34.721,-45.924C34.417,-45.991 34.395,-45.638 34.395,-45.638C34.395,-45.638 34.004,-45.674 33.83,-45.674C33.653,-45.674 33.83,-45.674 33.499,-45.959C33.167,-46.241 33.235,-45.779 33.059,-45.924C32.866,-46.059 32.694,-46.276 32.602,-46.203C32.515,-46.13 32.211,-46.521 32.034,-46.486C31.857,-46.453 31.129,-46.592 30.961,-46.521C30.782,-46.453 30.627,-46.453 30.483,-46.383C30.323,-46.314 30.276,-46.877 30.355,-47.053C30.453,-47.235 30.651,-47.265 31.051,-47.159C31.434,-47.053 31.464,-47.159 31.553,-47.336C31.651,-47.512 31.73,-47.686 32.154,-47.825C32.572,-47.968 32.121,-48.075 32.007,-48.148C31.89,-48.218 31.73,-48.36 31.651,-48.148C31.553,-47.931 31.347,-47.686 31.347,-47.686C31.347,-47.686 31.11,-47.686 30.782,-47.727C30.453,-47.759 30.689,-47.901 30.839,-47.968C30.983,-48.043 31.16,-48.464 31.021,-48.569C30.863,-48.675 30.806,-48.749 30.543,-48.675C30.276,-48.607 30.453,-48.925 30.276,-49.028C30.092,-49.134 30.146,-48.958 30.146,-48.819C30.146,-48.675 29.885,-48.711 29.885,-48.711C29.885,-48.711 29.464,-48.781 29.315,-48.711C29.166,-48.642 28.891,-48.502 28.992,-48.392C29.081,-48.287 29.375,-48.287 29.464,-47.968C29.56,-47.654 29.081,-47.581 28.992,-47.548C28.891,-47.512 28.538,-47.369 28.538,-47.369C28.538,-47.369 28.185,-47.48 27.883,-47.48C27.576,-47.48 27.487,-47.445 27.552,-47.303C27.617,-47.159 27.761,-47.235 27.851,-47.235C27.937,-47.235 27.937,-47.053 28.204,-47.127C28.481,-47.195 28.421,-47.303 28.655,-47.021C28.891,-46.736 29.138,-46.771 29.524,-46.521C29.915,-46.276 29.464,-45.991 29.258,-45.991C29.049,-45.991 29.049,-46.203 28.921,-46.415C28.804,-46.63 28.332,-46.383 28.332,-46.383C28.332,-46.383 27.937,-46.13 27.726,-46.13C27.527,-46.13 27.373,-46.174 27.644,-46.415C27.908,-46.662 27.312,-46.703 27.312,-47.053C27.312,-47.404 27.136,-46.453 27.136,-46.274C27.136,-46.097 26.959,-46.486 26.446,-46.415C25.938,-46.347 26.039,-46.13 25.37,-45.638C24.721,-45.146 24.878,-45.258 24.947,-44.801C25.006,-44.345 24.833,-44.263 25.102,-44.193C25.37,-44.122 25.27,-43.59 25.495,-43.631C25.702,-43.663 25.849,-43.842 26.272,-43.59C26.683,-43.345 26.892,-43.274 27.402,-43.169C27.908,-43.065 28.171,-43.123 28.432,-43.196C28.698,-43.266 28.962,-42.925 28.962,-42.676C28.962,-42.429 29.138,-42.394 29.105,-42.077C29.081,-41.756 29.435,-42.356 29.435,-42.356C29.435,-42.356 29.592,-41.827 29.464,-41.756C29.345,-41.685 29.489,-41.37 29.641,-41.4C29.788,-41.438 30.002,-41.3 30.179,-41.473C30.355,-41.656 30.092,-42.182 30.092,-42.394C30.092,-42.603 29.915,-42.713 29.826,-42.925C29.728,-43.133 30.059,-43.169 30.179,-42.957C30.298,-42.745 30.502,-42.925 30.719,-43.1C30.929,-43.274 30.929,-43.59 30.929,-43.59C30.929,-43.59 30.573,-44.158 30.298,-44.299C30.032,-44.44 30.146,-44.475 30.423,-44.546C30.689,-44.617 30.423,-44.722 30.483,-45.114C30.543,-45.5 30.543,-45.747 30.689,-45.747C30.839,-45.747 31.377,-45.855 31.82,-45.817C32.271,-45.779 32.485,-45.391 32.781,-45.361C33.077,-45.323 33.556,-45.255 33.653,-45.079C33.732,-44.899 33.115,-44.794 33.33,-44.508C33.537,-44.222 33.773,-44.332 33.979,-44.228C34.183,-44.122 34.417,-44.193 34.696,-44.617C34.958,-45.041 35.077,-45.079 35.164,-45.005C35.267,-44.931 35.832,-44.158 35.981,-43.984C36.128,-43.804 36.275,-43.294 36.305,-43.112C36.334,-42.938 36.905,-43.065 37.022,-43.065C37.136,-43.065 37.59,-42.676 37.649,-42.463C37.707,-42.251 37.832,-42.182 38.214,-42.077C38.608,-41.97 38.214,-41.58 38.12,-41.37C38.038,-41.158 37.976,-41.088 37.861,-40.838C37.739,-40.591 37.861,-40.838 38.002,-40.737C38.157,-40.632 38.214,-40.485 38.454,-40.555C38.701,-40.632 38.815,-40.555 38.907,-40.346C38.994,-40.132 39.111,-39.958 39.198,-39.781C39.282,-39.601 39.198,-39.322 39.084,-39.502C38.964,-39.677 38.573,-39.566 38.573,-39.566C38.573,-39.566 38.396,-39.357 38.337,-39.468C38.277,-39.566 38.157,-39.711 37.945,-39.637C37.739,-39.566 37.53,-39.637 37.286,-39.601C37.046,-39.566 36.959,-39.749 37.111,-39.887C37.267,-40.028 37.286,-40.555 37.59,-40.77C37.899,-40.979 37.791,-41.3 37.59,-41.3C37.386,-41.3 37.286,-40.979 37.168,-40.909C37.046,-40.838 36.647,-41.042 36.44,-40.868C36.226,-40.691 35.892,-40.555 36.087,-40.485C36.305,-40.417 35.799,-40.132 35.617,-40.132C35.441,-40.132 35.5,-40.591 35.5,-40.77C35.5,-40.944 35.267,-40.664 35.267,-40.664C35.267,-40.664 34.786,-40.979 34.609,-40.77C34.417,-40.555 33.778,-40.65 33.566,-40.441C33.357,-40.226 33.257,-39.677 33.257,-39.677C33.257,-39.677 33.433,-39.781 33.803,-39.887C34.153,-39.993 34.129,-39.958 34.417,-40.132C34.721,-40.311 35.017,-40.382 35.234,-40.061C35.441,-39.749 35.137,-39.566 35.137,-39.566C35.137,-39.566 35.267,-39.322 35.381,-39.254C35.5,-39.183 35.53,-39.322 35.737,-39.468C35.941,-39.601 35.862,-39.183 35.922,-39.04C35.981,-38.898 36.188,-38.898 36.305,-39.075C36.424,-39.254 36.511,-39.389 36.601,-39.29C36.688,-39.183 36.788,-38.936 36.878,-38.686C36.959,-38.442 36.245,-38.371 36.128,-38.333C35.998,-38.298 35.441,-38.157 35.343,-38.121C35.267,-38.086 34.958,-37.773 34.721,-37.773C34.477,-37.773 34.52,-38.192 34.477,-38.442C34.463,-38.686 34.153,-38.404 34.129,-38.298C34.088,-38.192 33.83,-38.227 33.612,-38.192C33.409,-38.157 33.059,-37.909 33.059,-37.624C33.059,-37.344 33.477,-37.043 33.379,-36.899C33.292,-36.762 32.602,-36.82 32.396,-36.887C32.181,-36.959 31.89,-36.785 31.975,-36.64C32.067,-36.5 32.007,-36.288 31.801,-36.32C31.583,-36.355 31.553,-36.105 31.651,-35.931C31.73,-35.758 31.377,-35.402 31.279,-35.549C31.197,-35.687 31.021,-35.758 31.021,-35.549C31.021,-35.337 31.187,-35.041 31.377,-34.758C31.553,-34.475 30.863,-34.416 30.651,-34.204C30.453,-33.992 29.983,-33.269 29.679,-33.126C29.383,-32.987 29.138,-32.544 29.285,-32.37C29.435,-32.196 29.619,-31.458 29.709,-31.205C29.788,-30.958 29.666,-30.251 29.404,-30.287C29.138,-30.325 29.285,-30.746 29.019,-30.851C28.744,-30.958 28.598,-31.591 28.538,-32.017C28.481,-32.441 28.421,-32.196 28.236,-32.05C28.068,-31.911 27.883,-32.335 27.796,-32.441C27.707,-32.544 27.253,-32.234 26.902,-32.267C26.547,-32.305 26.351,-32.231 26.351,-32.12C26.351,-32.017 26.299,-31.699 25.968,-31.911C25.647,-32.12 25.577,-32.12 25.259,-32.12C24.925,-32.12 24.621,-32.158 24.561,-32.017C24.506,-31.873 24.181,-31.558 23.963,-31.484C23.759,-31.417 23.376,-31.06 23.542,-30.99C23.727,-30.923 23.727,-30.43 23.61,-30.145C23.493,-29.865 23.526,-29.368 23.583,-28.874C23.64,-28.38 24.001,-28.061 24.33,-27.749C24.65,-27.428 24.778,-27.32 25.102,-27.602C25.436,-27.885 25.544,-27.711 25.647,-27.675C25.731,-27.64 25.968,-27.852 25.878,-28.171C25.792,-28.488 25.998,-28.768 26.272,-28.732C26.533,-28.703 26.93,-28.839 27.136,-28.8C27.34,-28.768 27.462,-28.099 27.136,-27.817C26.799,-27.537 26.989,-27.108 26.93,-26.793C26.859,-26.475 26.598,-26.404 26.93,-26.404C27.253,-26.404 27.163,-26.334 27.373,-26.299C27.576,-26.263 27.796,-26.513 28,-26.546C28.204,-26.581 28.744,-26.018 28.655,-25.731C28.568,-25.451 28.481,-24.957 28.511,-24.498C28.538,-24.041 28.655,-24.006 28.714,-23.862C28.774,-23.72 29.019,-23.403 29.285,-23.547C29.56,-23.685 29.826,-23.791 29.915,-23.929C30.002,-24.074 30.573,-23.685 30.502,-23.579C30.453,-23.473 30.719,-23.373 30.893,-23.473C31.081,-23.579 31.16,-23.761 31.347,-24.041C31.532,-24.321 31.82,-24.568 31.975,-24.606C32.121,-24.641 32.485,-25.065 32.722,-24.989C32.969,-24.919 32.632,-24.568 32.602,-24.359C32.572,-24.147 32.602,-23.547 32.722,-23.508C32.841,-23.473 32.781,-23.929 32.936,-24.25C33.077,-24.568 33.379,-24.745 33.537,-24.745C33.672,-24.745 33.803,-24.006 34.004,-24.217C34.213,-24.424 34.634,-24.391 34.721,-24.179C34.811,-23.967 34.897,-23.862 34.897,-23.862C34.897,-23.862 35.047,-24.006 35.047,-24.179C35.047,-24.359 35.53,-24.533 35.832,-24.321C36.128,-24.112 35.998,-24.041 36.155,-24.006C36.305,-23.967 36.462,-24.46 36.544,-24.498C36.628,-24.533 36.544,-23.929 36.334,-23.614C36.128,-23.3 36.511,-23.403 36.511,-23.403L36.601,-23.3C36.688,-23.191 36.998,-23.403 37.111,-23.191C37.234,-22.981 37.443,-22.911 37.62,-22.519C37.791,-22.133 38.002,-22.479 38.364,-22.547C38.728,-22.62 39.239,-22.095 39.592,-21.636C39.942,-21.18 39.888,-20.827 40.132,-20.827C40.369,-20.827 40.429,-20.441 40.429,-20.295C40.429,-20.159 39.888,-19.842 39.592,-19.767C39.282,-19.7 39.282,-19.346 39.769,-19.453C40.247,-19.555 40.032,-19.767 40.336,-19.877C40.643,-19.982 40.931,-19.732 40.676,-19.311C40.391,-18.89 39.858,-18.846 40.336,-18.782C40.822,-18.714 40.548,-18.846 40.822,-19.276C41.086,-19.7 41.048,-19.555 41.232,-19.555C41.407,-19.555 41.8,-19.453 41.95,-19.311C42.099,-19.17 42.488,-18.958 42.735,-18.782C42.969,-18.602 43.275,-18.673 43.444,-18.744C43.626,-18.814 44.131,-18.535 44.316,-18.252C44.493,-17.967 44.933,-17.934 45.15,-17.828C45.356,-17.722 45.693,-17.301 45.718,-16.945C45.74,-16.592 45.386,-15.85 45.356,-15.671C45.327,-15.5 44.843,-14.861 44.408,-14.44C43.952,-14.019 44.227,-13.519 44.256,-13.31C44.278,-13.101 43.952,-12.321 44.05,-12.142C44.131,-11.968 43.925,-11.58 43.748,-11.33C43.569,-11.083 43.444,-10.627 43.324,-10.42C43.205,-10.203 42.825,-10.276 42.463,-10.168C42.099,-10.061 41.92,-9.958 41.92,-9.958C41.92,-9.958 41.29,-9.599 40.931,-9.317C40.573,-9.043 41.048,-8.546 40.872,-8.151C40.695,-7.768 40.548,-8.113 40.38,-7.654C40.195,-7.198 40.064,-7.271 39.918,-7.171C39.769,-7.062 39.676,-6.782 39.651,-6.503C39.622,-6.217 39.32,-5.932 38.935,-5.508C38.543,-5.085 38.31,-5.155 37.899,-5.301C37.462,-5.437 37.53,-6.635 37.462,-6.462C37.413,-6.285 37.204,-5.674 37.267,-5.571C37.323,-5.462 37.739,-5.047 37.899,-4.943C38.038,-4.84 38.002,-4.666 37.899,-4.484C37.764,-4.313 37.443,-3.672 37.323,-3.642C37.196,-3.606 36.275,-3.46 36.087,-3.568C35.922,-3.672 35.832,-3.319 35.862,-3.109C35.892,-2.9 36.039,-2.645 35.707,-2.721C35.381,-2.789 34.941,-3.039 34.941,-2.859C34.941,-2.688 35.017,-2.298 35.202,-2.298C35.381,-2.298 35.558,-2.441 35.471,-2.186C35.381,-1.944 35.137,-1.732 35.017,-1.627C34.897,-1.517 34.751,-1.173 34.463,-0.923C34.153,-0.675 34.153,-0.534 34.213,-0.428C34.272,-0.322 34.721,-0.39 34.811,-0.322C34.897,-0.252 34.721,0.242 34.609,0.352C34.477,0.46 33.979,0.95 33.773,1.088C33.556,1.229 33.556,1.656 33.612,1.87C33.672,2.079 34.153,2.609 34.417,2.718C34.696,2.821 35.267,2.785 35.202,2.894C35.137,2.994 34.477,3.109 34.395,3.142C34.308,3.174 33.83,3.316 33.583,3.316C33.346,3.316 32.909,3.031 32.811,3.031C32.722,3.031 32.866,2.894 33.167,2.609C33.466,2.324 33.059,2.009 32.993,2.397C32.936,2.785 32.811,2.894 32.662,2.894C32.515,2.894 32.33,2.645 32.238,2.538C32.154,2.43 31.76,2.324 31.82,1.906C31.89,1.479 31.651,1.511 31.464,1.343C31.279,1.161 31.7,1.02 31.651,0.843C31.583,0.669 31.32,0.776 31.279,0.523C31.26,0.281 31.532,-0.078 31.553,-0.178C31.583,-0.287 31.377,-0.499 31.347,-0.675C31.32,-0.849 31.464,-1.026 31.673,-1.308C31.89,-1.591 32.034,-1.944 32.034,-2.048C32.034,-2.156 31.89,-2.548 31.89,-2.83C31.89,-3.109 32.034,-3.213 32.091,-3.606C32.154,-3.99 31.89,-3.848 31.89,-4.172C31.89,-4.484 32.181,-4.381 32.121,-4.699C32.067,-5.013 32.271,-5.225 32.355,-5.437C32.455,-5.649 32.542,-6.003 32.662,-6.247C32.781,-6.503 32.542,-7.062 32.542,-7.171C32.542,-7.271 32.936,-7.416 32.751,-7.628C32.572,-7.839 32.909,-7.91 33.085,-8.087C33.257,-8.262 32.969,-8.86 33.059,-9.499C33.143,-10.134 33.235,-11.229 33.235,-11.33C33.235,-11.441 33.257,-11.862 33.102,-12.142C32.969,-12.427 32.781,-12.642 32.572,-12.745C32.355,-12.851 32.091,-13.169 31.944,-13.202C31.801,-13.237 30.888,-13.539 30.888,-14.033C30.888,-14.525 30.573,-14.932 30.502,-15.283C30.453,-15.641 30.002,-16.413 29.975,-16.766C29.942,-17.122 29.315,-17.227 29.228,-17.613C29.138,-18.005 29.364,-18.26 29.413,-18.508C29.483,-18.749 29.375,-19.311 29.345,-19.488C29.315,-19.662 29.619,-20.246 29.788,-20.352C29.975,-20.455 30.298,-20.827 30.423,-20.827C30.543,-20.827 30.502,-21.213 30.627,-21.604C30.749,-21.993 30.573,-22.519 30.483,-22.593C30.394,-22.661 30.298,-23.12 30.146,-23.258C30.002,-23.403 29.709,-23.338 29.709,-23.338C29.709,-23.338 29.766,-23.017 29.489,-22.838C29.228,-22.661 29.166,-22.879 29.081,-22.981C28.992,-23.088 28.655,-23.12 28.511,-23.3C28.353,-23.473 28.117,-23.72 27.937,-23.829C27.761,-23.929 27.321,-24.027 27.354,-24.451C27.383,-24.872 27.136,-25.133 27.006,-25.204C26.892,-25.274 26.655,-25.451 26.509,-25.347C26.351,-25.239 26.085,-25.554 25.878,-25.524C25.672,-25.486 25.259,-25.945 25.102,-26.122C24.947,-26.299 24.833,-26.546 24.561,-26.546C24.294,-26.546 24.273,-26.445 24.085,-26.195C23.906,-25.945 23.64,-26.369 23.542,-26.475C23.455,-26.581 23.023,-26.404 22.694,-26.404C22.366,-26.404 22.216,-27.078 22.211,-27.217C22.159,-27.741 21.252,-27.749 21.04,-27.885C20.833,-28.032 20.616,-28.558 20.72,-28.703C20.807,-28.839 20.567,-29.298 20.567,-29.298C20.567,-29.298 20.149,-29.865 19.989,-29.865C19.85,-29.865 19.369,-30.851 19.098,-31.132C18.832,-31.417 18.201,-32.05 18.074,-32.37C17.957,-32.688 17.924,-33.179 17.633,-32.935C17.34,-32.688 17.563,-32.441 17.875,-32.158C18.174,-31.873 18.114,-31.591 18.527,-31.205C18.948,-30.813 18.769,-30.43 18.948,-30.251C19.139,-30.075 19.752,-29.651 19.486,-29.368C19.228,-29.083 18.948,-29.721 18.832,-29.762C18.712,-29.792 18.446,-29.865 18.467,-30.075C18.492,-30.287 18.231,-30.463 18.022,-30.778C17.821,-31.098 17.718,-30.923 17.457,-30.923C17.19,-30.923 17.427,-31.308 17.563,-31.484C17.718,-31.664 17.427,-31.911 17.25,-31.981C17.063,-32.05 16.829,-32.859 16.58,-33.359C16.356,-33.853 16.169,-34.095 15.903,-34.065C15.637,-34.03 15.188,-34.297 15.012,-34.437C14.833,-34.579 14.884,-35.372 14.588,-35.722C14.287,-36.076 14.021,-36.744 14.05,-37.135C14.083,-37.523 14.17,-38.507 14.17,-38.757C14.17,-39.004 13.939,-39.471 13.939,-39.577C13.939,-39.686 13.863,-39.993 13.746,-40.028C13.626,-40.061 13.243,-40.411 12.982,-40.411C12.708,-40.411 12.586,-40.909 12.676,-41.158C12.765,-41.4 12.437,-41.827 12.292,-41.827C12.135,-41.827 11.898,-42.286 11.812,-42.536C11.714,-42.783 11.494,-42.783 11.537,-42.641C11.597,-42.498 11.519,-42.251 11.654,-42.182C11.812,-42.112 11.926,-41.547 11.812,-41.473C11.684,-41.4 11.418,-41.685 11.125,-41.862C10.817,-42.039 10.937,-42.745 10.937,-42.925C10.937,-43.1 10.527,-43.274 10.339,-43.274C10.174,-43.274 9.986,-43.242 9.956,-43.701C9.929,-44.158 9.386,-44.402 9.209,-44.402C9.035,-44.402 8.02,-44.747 7.726,-44.747C7.422,-44.747 6.971,-45.184 6.786,-45.041C6.609,-44.899 6.283,-45.291 6.107,-45.291C5.919,-45.291 6.017,-44.809 5.683,-44.562C5.357,-44.315 5.148,-44.796 4.966,-44.617C4.792,-44.44 4.328,-44.263 4.485,-44.684C4.637,-45.114 4.637,-45.184 4.398,-45.079C4.162,-44.969 4.104,-44.684 4.104,-44.51C4.104,-44.332 3.681,-44.057 3.681,-44.057C3.681,-44.057 4.072,-44.013 4.224,-44.057C4.36,-44.087 4.251,-43.663 4.104,-43.56C3.944,-43.451 3.751,-43.169 3.504,-43.242C3.26,-43.31 3.232,-43.56 3.083,-43.59C2.934,-43.631 2.771,-43.138 2.238,-42.821C1.701,-42.503 1.619,-42.957 1.407,-42.856C1.198,-42.745 0.454,-42.429 0.187,-42.394C-0.076,-42.356 -0.027,-42.783 0.127,-42.783C0.277,-42.783 0.845,-43.1 0.994,-43.204C1.141,-43.31 1.798,-43.59 1.975,-43.701C2.162,-43.804 2.456,-43.984 2.336,-44.193C2.222,-44.402 1.826,-44.087 1.826,-44.087C1.826,-44.087 1.526,-44.402 1.434,-44.475C1.353,-44.546 1.179,-44.193 1.179,-44.193C1.179,-44.193 0.785,-44.263 0.872,-44.652C0.964,-45.041 0.657,-45.041 0.6,-44.864C0.538,-44.684 0.032,-44.402 0,-44.582C-0.027,-44.758 -0.484,-45.114 -0.59,-45.391C-0.709,-45.674 -0.484,-45.715 -0.207,-45.959C0.07,-46.203 0.454,-46.276 0.785,-46.241C1.111,-46.203 1.331,-46.662 1.198,-46.703C1.084,-46.736 0.872,-46.771 0.695,-46.592C0.513,-46.415 0.07,-46.453 0.07,-46.453C0.07,-46.453 -0.59,-46.453 -0.861,-46.662C-1.127,-46.877 -1.274,-47.195 -1.274,-47.195C-1.274,-47.195 -0.739,-47.445 -0.326,-47.48L0,-47.654ZM27.373,-37.135C27.674,-37.094 27.674,-37.594 27.644,-37.735C27.617,-37.877 27.617,-38.474 27.726,-38.583C27.851,-38.686 28,-39.004 28.332,-39.04C28.655,-39.075 28.864,-38.787 28.834,-38.474C28.804,-38.157 28.891,-37.839 29.019,-37.839C29.138,-37.839 29.489,-38.086 29.375,-38.298C29.258,-38.507 29.464,-39.218 29.464,-38.971C29.464,-38.721 29.709,-38.545 29.858,-38.583C30.002,-38.616 29.709,-39.254 29.489,-39.29C29.285,-39.322 28.864,-39.322 28.774,-39.29C28.69,-39.254 28.185,-39.468 27.937,-39.427C27.707,-39.389 27.34,-39.29 27.226,-39.004C27.106,-38.721 27.226,-38.192 27.19,-37.985C27.163,-37.773 27.106,-37.171 27.373,-37.135M29.049,-37.135C29.117,-36.972 29.435,-37.099 29.619,-37.311C29.788,-37.523 30.179,-37.594 30.298,-37.773C30.423,-37.945 30.502,-37.909 30.806,-38.05C31.11,-38.192 31.347,-38.227 31.23,-38.404C31.11,-38.583 30.483,-38.404 30.394,-38.474C30.298,-38.545 29.666,-37.703 29.666,-37.703C29.666,-37.703 29.138,-37.456 29.105,-37.344C29.081,-37.244 28.962,-37.344 29.049,-37.135M25.938,-39.849C25.938,-39.659 26.242,-39.637 26.411,-39.749C26.598,-39.849 26.859,-39.923 26.989,-39.958C27.106,-39.993 27.049,-39.781 27.312,-39.781C27.576,-39.781 27.908,-39.677 28,-39.711C28.098,-39.749 28.353,-40.167 28.147,-40.208C27.937,-40.243 27.617,-40.485 27.44,-40.699C27.253,-40.909 26.834,-40.417 26.446,-40.243C26.058,-40.061 25.938,-40.132 25.938,-39.849M13.689,-41.014C13.45,-41.115 13.784,-40.591 13.931,-40.485C14.083,-40.382 14.374,-40.382 14.412,-40.208C14.447,-40.028 14.534,-39.601 14.675,-39.637C14.824,-39.677 14.824,-40.061 14.708,-40.208C14.588,-40.346 14.143,-40.77 14.05,-40.77C13.963,-40.77 13.784,-40.979 13.689,-41.014" style="fill:rgb(187,187,187);fill-opacity:0.4;fill-rule:nonzero;"/>
                        </g>
                        <g transform="matrix(4.41459,0,0,4.41459,224.333,1126.62)">
                            <path d="M0,0.003C-0.087,0.104 0.354,0.261 0.432,0.119C0.522,-0.018 0.196,-0.258 0,0.003" style="fill:rgb(187,187,187);fill-opacity:0.4;fill-rule:nonzero;"/>
                        </g>
                        <g transform="matrix(4.41459,0,0,4.41459,229.446,1128.79)">
                            <path d="M0,-0.28C-0.326,-0.175 -0.019,0.095 0.176,0.002C0.375,-0.09 0.274,-0.375 0,-0.28" style="fill:rgb(187,187,187);fill-opacity:0.4;fill-rule:nonzero;"/>
                        </g>
                        <g transform="matrix(4.41459,0,0,4.41459,163.837,1102.5)">
                            <path d="M0,-0.063C-0.041,0.076 0.185,0.073 0.429,0.073C0.695,0.073 1.119,0.073 1.236,0.002C1.35,-0.063 1.951,-0.231 1.934,-0.019C1.915,0.196 2.165,0.524 2.309,0.478C2.451,0.426 2.719,0.12 2.869,0.239C3.002,0.356 3.026,0.638 3.173,0.708C3.306,0.78 3.689,0.78 3.855,0.708C4.048,0.638 4.534,0.638 4.76,0.684C4.979,0.733 5.613,0.872 5.672,0.733C5.735,0.592 5.909,0.571 5.928,0.426C5.958,0.285 6.055,-0.161 6.055,-0.161C6.055,-0.161 5.928,-0.421 5.735,-0.301C5.531,-0.188 5.474,-0.114 5.3,-0.161C5.118,-0.207 5.118,-0.586 4.8,-0.511C4.485,-0.44 4.415,-0.231 4.317,-0.138C4.225,-0.043 4.004,0.027 3.923,-0.019C3.847,-0.063 3.388,-0.373 3.388,-0.373C3.388,-0.373 2.423,-0.421 2.382,-0.562C2.342,-0.701 2.187,-0.935 1.75,-0.888C1.304,-0.848 0.546,-0.536 0.429,-0.536C0.315,-0.536 0.582,-0.255 0.413,-0.255C0.264,-0.255 0.057,-0.277 0,-0.063" style="fill:rgb(187,187,187);fill-opacity:0.4;fill-rule:nonzero;"/>
                        </g>
                        <g transform="matrix(4.41459,0,0,4.41459,178.781,1097.95)">
                            <path d="M0,0.002C-0.226,0.095 -0.185,0.356 -0.019,0.356C0.139,0.356 0.538,0.185 0.66,0.307C0.78,0.424 1.076,0.331 1.051,0.214C1.03,0.098 1.179,-0.373 0.932,-0.402C0.698,-0.422 0.353,-0.139 0,0.002" style="fill:rgb(187,187,187);fill-opacity:0.4;fill-rule:nonzero;"/>
                        </g>
                        <g transform="matrix(4.41459,0,0,4.41459,190.663,1097.97)">
                            <path d="M0,-0.31C-0.03,-0.142 0.155,-0.003 0.405,-0.003C0.622,-0.003 1.149,-0.144 1.187,-0.031C1.239,0.094 1.166,0.181 1.453,0.23C1.725,0.28 1.853,0.329 2.01,0.329C2.168,0.329 2.097,0.018 1.972,-0.191C1.826,-0.405 1.872,-0.378 1.513,-0.5C1.149,-0.617 0.796,-0.617 0.551,-0.592C0.312,-0.571 0.054,-0.639 0,-0.31" style="fill:rgb(187,187,187);fill-opacity:0.4;fill-rule:nonzero;"/>
                        </g>
                        <g transform="matrix(4.41459,0,0,4.41459,192.439,1104.8)">
                            <path d="M0,-0.777C-0.155,-0.622 0,-0.138 -0.068,-0.092C-0.119,-0.044 -0.041,0.163 0.114,0.118C0.274,0.071 0.348,-0.375 0.47,-0.375C0.59,-0.375 1.198,-0.541 1.307,-0.282C1.402,-0.024 1.402,-0.138 1.682,-0.117C1.964,-0.092 2.179,-0.445 2.198,-0.565C2.217,-0.681 2.062,-0.918 1.682,-0.872C1.307,-0.823 0.147,-0.94 0,-0.777" style="fill:rgb(187,187,187);fill-opacity:0.4;fill-rule:nonzero;"/>
                        </g>
                        <g transform="matrix(4.41459,0,0,4.41459,195.644,1111.48)">
                            <path d="M0,-1.039C-0.136,-0.938 -0.06,-0.594 0.168,-0.571C0.383,-0.544 0.763,-0.731 0.807,-0.594C0.842,-0.452 0.973,0.187 1.336,-0.028C1.698,-0.24 1.682,-0.431 1.771,-0.452C1.872,-0.474 1.758,-0.995 1.592,-1.112C1.437,-1.226 0.913,-1.161 0.78,-1.088C0.638,-1.015 0.226,-1.202 0,-1.039" style="fill:rgb(187,187,187);fill-opacity:0.4;fill-rule:nonzero;"/>
                        </g>
                        <g transform="matrix(4.41459,0,0,4.41459,205.601,1105.97)">
                            <path d="M0,0.419C0.019,0.483 0.177,0.611 0.435,0.56C0.701,0.514 1.062,0.465 1.247,0.445C1.44,0.419 1.476,0.065 1.271,0.046C1.062,0.02 0.913,-0.192 0.739,-0.125C0.56,-0.049 -0.054,0.253 0,0.419" style="fill:rgb(187,187,187);fill-opacity:0.4;fill-rule:nonzero;"/>
                        </g>
                        <g transform="matrix(4.41459,0,0,4.41459,205.353,1103.89)">
                            <path d="M0,-0.1C-0.089,0.15 0.793,0.28 0.693,-0.005C0.587,-0.287 0.098,-0.38 0,-0.1" style="fill:rgb(187,187,187);fill-opacity:0.4;fill-rule:nonzero;"/>
                        </g>
                        <g transform="matrix(4.41459,0,0,4.41459,206.043,1103.81)">
                            <path d="M0,-1.288C-0.258,-1.352 -0.674,-1.445 -0.674,-1.516C-0.674,-1.587 -0.791,-1.187 -0.584,-1.064C-0.364,-0.951 0,-0.736 0.25,-0.622C0.514,-0.503 1.011,-0.483 1.171,-0.242C1.339,-0.014 1.872,0.18 1.872,0.18L2.502,0.25C2.502,0.25 2.945,0.128 3.396,0.18C3.871,0.226 4.542,0.299 4.92,0.272C5.3,0.25 5.357,0.106 5.401,0.014C5.439,-0.081 4.705,-0.268 4.515,-0.242C4.336,-0.223 3.328,-0.223 3.026,-0.242C2.719,-0.268 2.347,-0.268 2.097,-0.242C1.872,-0.223 1.69,-0.43 1.513,-0.554C1.339,-0.668 0.929,-1.046 0.698,-1.095C0.459,-1.146 0.492,-1.146 0,-1.288" style="fill:rgb(187,187,187);fill-opacity:0.4;fill-rule:nonzero;"/>
                        </g>
                        <g transform="matrix(4.41459,0,0,4.41459,316.353,1125.79)">
                            <path d="M0,-1.362C-0.082,-1.207 -0.239,-1.204 -0.082,-0.87C0.076,-0.541 0.201,-0.351 0.339,-0.376C0.478,-0.4 0.951,-0.427 1.019,-0.24C1.076,-0.05 1.233,0.119 1.578,-0.008C1.91,-0.118 2.195,-0.193 2.266,-0.335C2.342,-0.473 2.885,-0.495 2.885,-0.495C2.885,-0.495 3.325,-0.894 3.167,-1.06C3.007,-1.223 2.638,-1.34 2.45,-1.362C2.266,-1.391 2.086,-1.204 1.692,-1.204C1.293,-1.204 1.038,-1.011 0.872,-1.204C0.726,-1.391 0.057,-1.481 0,-1.362" style="fill:rgb(187,187,187);fill-opacity:0.4;fill-rule:nonzero;"/>
                        </g>
                        <g transform="matrix(4.41459,0,0,4.41459,241.388,1109.17)">
                            <path d="M0,-2.26C0.229,-2.073 0.356,-2.186 0.633,-2.121C0.91,-2.045 1.117,-1.529 1.263,-1.455C1.407,-1.388 1.614,-1.455 1.701,-1.605C1.791,-1.743 1.918,-2.236 1.918,-2.236C1.918,-2.236 1.918,-1.765 2.149,-1.67C2.358,-1.573 2.91,-1.743 3.059,-1.719C3.192,-1.698 4.059,-1.553 4.287,-1.412C4.531,-1.274 5.107,-1.176 5.273,-0.871C5.441,-0.565 5.45,0.49 5.547,0.612C5.637,0.728 5.938,0.234 6.023,0.118C6.102,-0.002 6.485,0.068 6.602,0.234C6.727,0.4 7.025,0.8 7.003,0.963C6.982,1.128 6.936,1.388 6.816,1.288C6.71,1.201 6.534,1.226 6.602,1.039C6.68,0.845 6.71,0.443 6.558,0.443L6.297,0.443C6.297,0.443 6.023,0.354 5.833,0.707C5.659,1.057 5.806,1.416 5.931,1.416C6.061,1.416 6.354,1.416 6.354,1.503C6.354,1.598 6.031,1.886 6.061,2.047C6.08,2.212 6.308,2.774 6.39,2.894C6.455,3.011 6.835,3.128 6.955,3.155C7.058,3.174 6.688,3.201 6.778,3.364C6.878,3.527 7.025,3.931 7.221,4.024C7.425,4.119 7.987,4.54 8.066,4.727C8.131,4.918 8.565,4.589 8.652,4.564C8.75,4.546 8.734,5.059 8.984,5.086C9.242,5.102 9.343,5.032 9.546,4.825C9.772,4.611 9.723,4.331 9.734,4.119C9.753,3.907 9.734,3.741 9.97,3.809C10.212,3.886 10.334,3.758 10.323,3.527C10.304,3.293 10.095,3.011 10.478,2.94C10.864,2.872 11.057,2.559 11.301,2.559C11.541,2.559 12.198,2.682 12.269,2.559C12.333,2.448 12.649,1.748 12.855,1.725C13.054,1.696 13.581,1.812 14.04,1.718C14.523,1.625 15.034,1.272 15.2,1.288C15.36,1.315 15.762,1.315 15.634,1.175C15.507,1.039 15.33,0.707 15.053,0.707C14.781,0.707 14.732,-0.019 14.811,-0.019C14.879,-0.019 15.544,0.256 15.525,0.49C15.507,0.728 15.634,1.039 16.009,0.946C16.359,0.845 16.311,0.49 16.24,0.4C16.167,0.304 16.115,0.068 16.034,-0.092C15.968,-0.257 15.789,-0.774 16.167,-0.823C16.558,-0.871 17.272,-0.328 17.253,-0.705C17.231,-1.083 17.253,-1.483 17.359,-1.698C17.479,-1.906 17.715,-2.045 17.587,-2.121C17.449,-2.186 17.292,-2.021 17.161,-2.379C17.039,-2.727 17.272,-2.985 17.419,-3.132C17.566,-3.273 18.324,-4.189 18.753,-4.327C19.168,-4.471 19.465,-5.012 19.168,-5.128C18.873,-5.245 18.294,-5.46 17.914,-5.082C17.528,-4.707 17.311,-4.357 16.873,-4.471C16.436,-4.59 16.371,-5.212 16.121,-5.533C15.762,-6.003 15.99,-6.918 15.602,-6.848L15.219,-6.778C15.219,-6.778 14.768,-6.869 14.496,-6.802C14.132,-6.709 13.888,-6.451 13.678,-6.508C13.279,-6.614 12.915,-6.364 12.806,-6.334C11.913,-6.112 11.198,-6.424 11.068,-6.448C10.962,-6.459 11.684,-6.345 12.257,-6.448C12.687,-6.519 13.412,-6.696 13.765,-6.769C14.132,-6.837 13.844,-7.005 13.716,-7.019C13.247,-7.078 12.551,-7.299 12.002,-7.337C11.567,-7.362 11.293,-7.206 10.853,-7.196C10.304,-7.177 9.636,-7.217 9.204,-6.9C8.821,-6.625 8.329,-6.593 8.302,-6.538C8.074,-6.264 7.881,-5.555 7.68,-5.742C7.484,-5.93 7.444,-6.403 7.177,-6.212C6.936,-6.025 7.161,-5.555 6.955,-5.224C6.727,-4.892 6.11,-4.938 5.931,-5.058C5.746,-5.174 5.561,-5.267 4.833,-5.224C4.108,-5.174 3.304,-4.892 3.467,-4.613C3.635,-4.327 3.149,-4.164 3.021,-4.305C2.888,-4.447 2.301,-4.14 2.339,-3.86C2.383,-3.58 2.25,-3.248 1.94,-3.319C1.633,-3.387 1.407,-3.154 1.386,-2.914C1.369,-2.681 0.693,-2.518 0.633,-2.518C0.573,-2.518 -0.318,-2.539 0,-2.26" style="fill:rgb(187,187,187);fill-opacity:0.4;fill-rule:nonzero;"/>
                        </g>
                        <g transform="matrix(4.41459,0,0,4.41459,223.38,1203.96)">
                            <path d="M0,-0.886C-0.03,-0.531 0.277,-0.639 0.627,-0.639C0.992,-0.639 1.622,-0.709 1.739,-0.531C1.855,-0.354 2.391,-0.072 2.545,0.07C2.692,0.215 3.17,0.247 3.197,0.103C3.228,-0.035 2.874,-0.424 2.657,-0.389C2.456,-0.354 2,-0.639 1.766,-0.886C1.529,-1.133 1.079,-1.133 0.902,-1.133C0.725,-1.133 0,-0.886 0,-0.886" style="fill:rgb(187,187,187);fill-opacity:0.4;fill-rule:nonzero;"/>
                        </g>
                        <g transform="matrix(4.41459,0,0,4.41459,233.048,1197.42)">
                            <path d="M0,-0.394C-0.283,-0.356 -0.215,0.033 0.117,-0.036C0.437,-0.112 0.266,-0.427 0,-0.394" style="fill:rgb(187,187,187);fill-opacity:0.4;fill-rule:nonzero;"/>
                        </g>
                        <g transform="matrix(4.41459,0,0,4.41459,233.697,1211.41)">
                            <path d="M0,-0.637C-0.274,-0.583 -0.217,0.055 0.117,-0.061C0.448,-0.178 0.266,-0.692 0,-0.637" style="fill:rgb(187,187,187);fill-opacity:0.4;fill-rule:nonzero;"/>
                        </g>
                        <g transform="matrix(4.41459,0,0,4.41459,251.124,1209.68)">
                            <path d="M0,-0.631C-0.285,-0.574 -0.212,0.058 0.114,-0.059C0.437,-0.175 0.264,-0.689 0,-0.631" style="fill:rgb(187,187,187);fill-opacity:0.4;fill-rule:nonzero;"/>
                        </g>
                        <g transform="matrix(4.41459,0,0,4.41459,239.113,1207.23)">
                            <path d="M0,0.07C0,0.07 0.32,0.14 0.53,0.14C0.744,0.14 0.864,0.282 1.041,0.39C1.217,0.497 1.548,0.247 1.668,0.247C1.782,0.247 1.934,0.671 1.972,0.212C2.002,-0.248 1.608,-0.457 1.366,-0.528C1.136,-0.601 0.864,-0.528 0.685,-0.495C0.508,-0.457 0,0.07 0,0.07" style="fill:rgb(187,187,187);fill-opacity:0.4;fill-rule:nonzero;"/>
                        </g>
                        <g transform="matrix(4.41459,0,0,4.41459,349.622,1300.54)">
                            <path d="M0,-27.984C0.117,-28.054 0.598,-28.231 0.861,-28.378C1.127,-28.516 2.002,-28.869 2.122,-28.869C2.238,-28.869 3.727,-28.832 3.944,-28.934C4.153,-29.046 4.966,-29.19 5.202,-28.413C5.438,-27.644 4.928,-27.948 4.688,-27.804C4.447,-27.666 4.77,-27.35 4.9,-27.35C5.015,-27.35 5.438,-26.891 5.642,-26.891C5.854,-26.891 6.356,-26.644 6.356,-26.644C6.356,-26.644 6.873,-26.188 7.139,-26.188C7.411,-26.188 7.862,-25.636 8.158,-25.987C8.448,-26.342 8.598,-27.065 8.902,-26.995C9.198,-26.924 9.524,-26.644 9.913,-26.644C10.307,-26.644 11.013,-26.713 11.141,-26.539C11.26,-26.362 10.339,-25.764 10.396,-25.62C10.453,-25.479 10.576,-25.514 10.863,-25.938C11.17,-26.362 11.622,-26.362 11.975,-26.465C12.328,-26.577 12.515,-25.903 12.578,-25.691C12.635,-25.479 12.901,-25.09 13.113,-24.631C13.319,-24.177 13.526,-23.54 13.773,-23.045C14.004,-22.55 13.743,-21.559 13.979,-21.241C14.213,-20.921 14.843,-20.64 14.99,-20.219C15.147,-19.798 15.495,-19.372 15.626,-19.337C15.745,-19.304 16.248,-18.486 16.278,-18.28C16.305,-18.065 16.101,-17.606 16.582,-17.574C17.063,-17.539 17.473,-17.818 17.622,-17.888C17.764,-17.957 18.932,-18.486 19.092,-18.28C19.241,-18.065 18.878,-17.15 18.851,-16.905C18.817,-16.653 17.954,-15.452 17.913,-15.134C17.896,-14.813 17.375,-14.254 17.063,-14.186C16.726,-14.115 16.039,-13.127 15.794,-12.808C15.555,-12.491 15.164,-11.785 14.99,-11.716C14.813,-11.643 14.675,-10.706 14.765,-10.567C14.852,-10.423 14.871,-9.771 15.147,-9.486C15.408,-9.207 15.495,-8.992 15.384,-8.748C15.265,-8.503 15.438,-7.935 15.384,-7.476C15.324,-7.017 14.813,-6.563 14.697,-6.422C14.577,-6.281 14.004,-5.892 13.773,-5.536C13.526,-5.183 13.319,-4.863 13.385,-4.694C13.439,-4.517 13.672,-3.631 13.653,-3.418C13.629,-3.208 12.831,-3.096 12.586,-2.961C12.35,-2.82 12.692,-2.361 12.751,-2.078C12.812,-1.796 12.328,-1.337 12.132,-1.089C11.915,-0.841 11.347,0.005 10.961,0.324C10.576,0.639 10.011,0.577 9.63,0.543C9.236,0.505 8.598,0.851 8.438,1.027C8.305,1.206 8.09,1.165 7.796,0.997C7.489,0.818 7.462,0.571 7.43,0.179C7.411,-0.207 7.313,-0.454 7.313,-0.454C7.313,-0.454 7.226,-1.056 6.962,-1.337C6.686,-1.616 6.593,-1.937 6.449,-2.149C6.3,-2.361 6.726,-2.963 6.693,-3.352C6.669,-3.735 6.156,-4.194 5.998,-4.441C5.854,-4.694 5.544,-5.36 5.438,-5.607C5.311,-5.854 5.164,-6.345 5.194,-7.052C5.221,-7.761 5.525,-8.174 5.772,-8.383C6.006,-8.595 5.911,-8.859 5.702,-9.277C5.498,-9.704 5.734,-10.404 5.544,-10.654C5.381,-10.904 5.104,-12.282 4.759,-12.494C4.447,-12.706 4.085,-12.706 4.271,-13.194C4.447,-13.691 4.271,-14.186 4.575,-14.501C4.868,-14.813 4.71,-15.034 4.387,-15.246C4.053,-15.452 4.181,-15.563 3.903,-15.313C3.64,-15.063 3.279,-14.924 3.072,-15.172C2.857,-15.42 2.926,-15.807 2.54,-16.088C2.151,-16.37 1.529,-16.275 1.372,-16.202C1.228,-16.133 0.921,-15.525 0.5,-15.452C0.087,-15.386 -0.218,-15.493 -0.63,-15.493C-1.041,-15.493 -1.416,-15.452 -1.464,-15.205C-1.521,-14.961 -1.619,-14.813 -1.886,-15.063C-2.149,-15.313 -2.689,-15.876 -2.689,-15.876C-2.689,-15.876 -3.192,-16.853 -3.342,-17.275C-3.486,-17.699 -4.004,-17.713 -4.575,-18.033C-5.146,-18.347 -4.812,-18.701 -4.871,-19.057C-4.928,-19.405 -5.232,-19.551 -5.086,-19.584C-4.928,-19.622 -4.956,-19.867 -4.624,-20.364C-4.301,-20.852 -4.513,-21.385 -4.575,-21.668C-4.624,-21.947 -4.928,-22.371 -4.624,-22.83C-4.339,-23.292 -4.143,-24.386 -3.907,-24.667C-3.67,-24.949 -2.958,-25.232 -2.633,-25.408C-2.31,-25.585 -2.502,-26.044 -2.336,-26.577C-2.149,-27.106 -1.886,-27.35 -1.796,-27.35C-1.698,-27.35 -1.375,-27.717 -1.024,-27.948C-0.758,-28.125 -0.114,-27.916 0,-27.984M13.053,-13.477C12.969,-13.631 12.458,-13.58 12.355,-13.409C12.279,-13.23 12.181,-12.421 12.458,-12.346C12.722,-12.279 13.203,-13.194 13.053,-13.477" style="fill:rgb(187,187,187);fill-opacity:0.4;fill-rule:nonzero;"/>
                        </g>
                        <g transform="matrix(4.41459,0,0,4.41459,431.266,1288.16)">
                            <path d="M0,-5.449C-0.383,-5.577 -0.421,-4.987 -0.73,-4.601C-1.021,-4.213 -1.345,-3.898 -1.475,-3.928C-1.592,-3.966 -2.247,-3.683 -2.043,-3.154C-1.823,-2.627 -1.858,-2.096 -2.073,-1.847C-2.276,-1.599 -1.888,-0.896 -1.945,-0.505C-2.016,-0.122 -1.858,0.128 -1.432,0.128C-1.021,0.128 -0.872,-0.043 -0.695,-0.505C-0.511,-0.97 -0.48,-1.426 -0.304,-1.811C-0.128,-2.203 0.03,-3.012 0.111,-3.224C0.206,-3.439 0.383,-4.113 0.358,-4.496C0.326,-4.887 0.206,-5.376 0,-5.449" style="fill:rgb(187,187,187);fill-opacity:0.4;fill-rule:nonzero;"/>
                        </g>
                        <g transform="matrix(4.41459,0,0,4.41459,479.115,1232.64)">
                            <path d="M0,-1.942C-0.198,-1.844 -0.396,-0.141 -0.029,-0.003C0.32,0.139 0.565,-1.062 0.451,-1.239C0.32,-1.41 0.271,-2.081 0,-1.942" style="fill:rgb(187,187,187);fill-opacity:0.4;fill-rule:nonzero;"/>
                        </g>
                        <g transform="matrix(4.41459,0,0,4.41459,368.08,1169.83)">
                            <path d="M0,-0.88C-0.277,-0.88 -0.418,-0.351 -0.234,-0.179C-0.068,0 0.117,-0.032 0.266,-0.279C0.413,-0.526 0.149,-0.88 0,-0.88" style="fill:rgb(187,187,187);fill-opacity:0.4;fill-rule:nonzero;"/>
                        </g>
                        <g transform="matrix(4.41459,0,0,4.41459,358.066,1167.49)">
                            <path d="M0,0.214C-0.073,0.35 0.239,0.391 0.283,0.249C0.361,0.106 0.209,-0.177 0,0.214" style="fill:rgb(187,187,187);fill-opacity:0.4;fill-rule:nonzero;"/>
                        </g>
                        <g transform="matrix(4.41459,0,0,4.41459,373.752,1173.88)">
                            <path d="M0,-0.634C-0.106,-0.558 0.179,-0.314 0.323,-0.243C0.483,-0.178 0.589,0.034 0.709,0.066C0.834,0.104 1.22,0.066 1.103,-0.281C0.983,-0.634 0.709,-0.634 0.622,-0.634C0.533,-0.634 0.147,-0.738 0,-0.634" style="fill:rgb(187,187,187);fill-opacity:0.4;fill-rule:nonzero;"/>
                        </g>
                        <g transform="matrix(4.41459,0,0,4.41459,342.218,1147.57)">
                            <path d="M0,-1.806C-0.266,-1.752 -0.296,-1.418 -0.473,-1.418C-0.66,-1.418 -0.867,-1.342 -0.804,-1.097C-0.75,-0.853 -0.63,-0.673 -0.804,-0.568C-0.978,-0.461 -0.78,-0.04 -0.53,-0.005C-0.296,0.033 -0.021,-0.182 0.185,-0.28C0.383,-0.394 0.685,-0.6 0.685,-0.918C0.685,-1.239 0.636,-1.521 0.508,-1.665C0.383,-1.806 0.185,-1.839 0,-1.806" style="fill:rgb(187,187,187);fill-opacity:0.4;fill-rule:nonzero;"/>
                        </g>
                        <g transform="matrix(4.41459,0,0,4.41459,343.68,1147.55)">
                            <path d="M0,-2.861C-0.245,-2.763 -0.144,-2.402 -0.027,-2.222C0.076,-2.043 0.304,-1.657 0.589,-1.518C0.894,-1.375 1.521,-1.233 1.285,-1.092C1.041,-0.954 0.353,-0.261 0.296,-0.049C0.231,0.162 1.07,0.071 1.07,0.071C1.07,0.071 0.894,0.321 1.041,0.388C1.187,0.459 1.285,0.144 1.521,0.144C1.766,0.144 2.238,0.321 2.475,0.321C2.716,0.321 3.11,-0.068 3.075,-0.318C3.042,-0.565 2.749,-0.954 2.475,-1.092C2.208,-1.233 1.918,-1.869 1.728,-2.013C1.551,-2.152 2.398,-2.619 2.189,-2.863C1.975,-3.111 1.345,-2.966 1.103,-3.14C0.867,-3.32 0.66,-3.102 0.505,-2.893C0.353,-2.681 0.176,-2.934 0,-2.861" style="fill:rgb(187,187,187);fill-opacity:0.4;fill-rule:nonzero;"/>
                        </g>
                        <g transform="matrix(4.41459,0,0,4.41459,352.351,1169.61)">
                            <path d="M0,-2.948C-0.022,-3.262 -0.62,-3.551 -1,-3.622C-1.405,-3.692 -1.336,-3.896 -0.924,-3.934C-0.502,-3.974 -0.53,-4.146 -0.177,-4.217C0.185,-4.293 0.538,-4.393 0.812,-4.428C1.079,-4.464 1.079,-4.749 1.079,-4.961C1.079,-5.173 1.826,-5.243 1.826,-5.243C1.826,-5.243 2.241,-5.703 2.486,-5.912C2.73,-6.124 3.143,-6.089 3.466,-5.985C3.806,-5.877 3.434,-6.229 3.328,-6.406C3.2,-6.586 3.287,-6.973 3.388,-7.185C3.466,-7.397 4.004,-7.507 4.154,-7.427C4.311,-7.359 4.154,-7.042 4.2,-6.76C4.222,-6.476 4.453,-6.305 4.453,-6.305L4.691,-6.338L5.085,-6.338C5.468,-6.338 5.496,-6.327 5.8,-6.433C6.096,-6.539 6.311,-6.406 6.433,-6.476C6.547,-6.55 6.87,-6.55 7.324,-6.371C7.772,-6.194 7.539,-6.694 7.625,-6.973C7.715,-7.257 7.889,-7.751 8.199,-7.713C8.492,-7.677 8.739,-7.466 8.973,-7.645C9.207,-7.816 8.522,-8.066 8.522,-8.175C8.522,-8.275 9.09,-8.275 9.601,-8.313C10.1,-8.348 10.396,-8.313 10.641,-8.384C10.885,-8.455 10.464,-8.952 10.367,-8.952C10.285,-8.952 9.69,-8.876 9.383,-8.914C9.09,-8.952 8.769,-8.702 8.492,-8.634C8.226,-8.557 8.166,-9.057 8.011,-9.264C7.854,-9.475 7.805,-9.867 8.199,-10.079C8.579,-10.288 9.266,-10.747 9.383,-10.959C9.502,-11.177 8.905,-11.138 8.334,-11.108C7.772,-11.068 8.432,-10.888 7.889,-10.259C7.354,-9.62 7.087,-10.041 6.664,-9.62C6.253,-9.199 6.547,-9.164 6.938,-9.019C7.324,-8.876 7,-8.455 6.9,-8.348C6.811,-8.24 6.359,-7.854 6.433,-7.571C6.487,-7.289 6.131,-7.115 6.131,-7.115C6.131,-7.115 5.028,-6.83 4.822,-6.798C4.602,-6.76 4.545,-6.973 4.602,-7.185C4.665,-7.397 4.371,-7.886 4.338,-8.207C4.311,-8.525 3.857,-8.066 3.828,-7.854C3.806,-7.645 3.238,-7.607 2.909,-7.751C2.581,-7.886 2.404,-8.419 2.453,-8.525C2.516,-8.634 2.276,-9.164 2.276,-9.302C2.276,-9.44 2.975,-10.47 3.545,-10.614C4.116,-10.75 4.778,-11.108 5.169,-11.454C5.558,-11.806 5.74,-12.233 5.862,-12.337C5.977,-12.442 8.049,-13.613 8.783,-13.758C9.543,-13.893 11.182,-13.043 11.448,-12.974C11.711,-12.899 11.869,-12.799 12.515,-12.515C13.175,-12.233 13.803,-12.543 14.224,-12.462C14.624,-12.402 14.852,-11.948 15.126,-11.806C15.392,-11.666 15.126,-11.559 14.471,-11.315C13.803,-11.068 13.36,-11.138 13.01,-11.277C12.643,-11.424 12.437,-11.424 12.703,-11.206C12.977,-11 12.876,-10.888 12.909,-10.573C12.939,-10.259 13.36,-10.535 13.444,-10.606C13.542,-10.679 13.542,-10.82 13.871,-10.573C14.197,-10.326 14.314,-10.465 14.471,-10.506C14.618,-10.535 14.501,-10.927 14.588,-11.068C14.675,-11.206 15.025,-11.206 15.126,-11.277C15.218,-11.347 15.419,-11.454 15.599,-11.489C15.786,-11.527 15.743,-11.177 15.933,-11.068C16.109,-10.959 16.017,-11.527 15.963,-11.666C15.9,-11.806 15.833,-12.195 15.933,-12.303C16.017,-12.41 16.64,-12.48 16.797,-12.337C16.946,-12.195 16.561,-11.771 16.64,-11.527C16.737,-11.277 16.946,-11.666 17.09,-11.878C17.237,-12.092 17.571,-11.878 18.098,-11.986C18.642,-12.092 18.524,-12.442 19.093,-12.233C19.665,-12.024 19.505,-12.024 19.692,-12.233C19.883,-12.442 20.203,-12.195 20.526,-12.337C20.858,-12.48 20.858,-12.337 21.097,-12.195C21.342,-12.056 21.635,-12.48 21.755,-12.619C21.869,-12.761 22.35,-12.761 22.586,-12.725C22.833,-12.692 23.126,-12.515 23.371,-12.515C23.61,-12.515 23.993,-12.303 23.993,-12.303C23.993,-12.303 24.493,-12.092 24.629,-12.233C24.748,-12.375 24.591,-12.549 24.14,-12.799C23.697,-13.043 23.873,-13.464 24.14,-13.502C24.414,-13.537 24.373,-13.714 24.591,-13.858C24.808,-13.999 25.068,-14.526 25.306,-14.42C25.553,-14.317 25.759,-14.102 26.063,-13.928C26.359,-13.749 26.096,-13.502 26.022,-13.328C25.963,-13.149 26.096,-12.48 26.177,-12.375C26.27,-12.265 26.096,-11.878 25.835,-11.698C25.606,-11.527 25.278,-11.138 25.365,-11.068C25.449,-11 26.177,-11.388 26.177,-11.388C26.177,-11.388 26.62,-12.024 26.829,-12.195C27.047,-12.375 27.25,-12.375 27.31,-12.16C27.37,-11.948 27.701,-11.878 27.995,-12.024C28.302,-12.16 27.995,-12.265 27.968,-12.587C27.935,-12.899 27.454,-12.725 27.193,-12.654C26.916,-12.587 26.724,-12.265 26.62,-12.265C26.533,-12.265 26.533,-12.48 26.59,-12.799C26.65,-13.119 26.476,-13.293 26.476,-13.464C26.476,-13.64 26.561,-13.64 26.77,-13.999C26.984,-14.349 26.984,-13.749 27.006,-13.431C27.047,-13.119 27.25,-13.255 27.427,-13.293C27.614,-13.328 27.527,-13.749 27.671,-13.956C27.82,-14.17 28.155,-14.203 28.437,-13.887C28.755,-13.572 28.715,-13.678 29.065,-13.537C29.429,-13.398 29.462,-13.363 29.486,-13.043C29.529,-12.725 29.766,-12.692 29.91,-12.799C30.06,-12.899 29.942,-13.328 29.855,-13.464C29.766,-13.608 29.035,-13.858 28.804,-14.102C28.567,-14.349 28.918,-14.349 29.195,-14.349C29.462,-14.349 29.97,-14.317 29.97,-14.317C29.97,-14.317 30.537,-14.458 30.831,-14.705C31.133,-14.947 31.347,-14.947 31.648,-15.089C31.941,-15.232 32.42,-15.232 32.725,-15.159C33.023,-15.089 33.229,-15.305 33.525,-15.444C33.821,-15.586 34.219,-16.504 34.24,-15.621C34.24,-15.507 35.071,-15.339 35.191,-15.371C35.311,-15.406 35.617,-15.452 36.063,-15.726C36.93,-16.254 36.172,-16.504 36.509,-16.007C36.634,-15.833 36.989,-16.15 37.617,-15.827C38.244,-15.512 37.617,-15.827 37.794,-15.621C37.98,-15.406 38.07,-15.653 38.494,-15.726C38.904,-15.801 39.165,-15.726 39.442,-15.686C39.706,-15.653 40.309,-15.653 40.57,-15.444C40.847,-15.232 40.394,-14.773 40.249,-14.632C40.1,-14.491 40.485,-14.385 40.61,-14.42C40.73,-14.458 41.714,-14.42 42.162,-14.349C42.604,-14.282 42.781,-14.032 42.998,-14.032C43.202,-14.032 43.528,-14.137 43.653,-14.282C43.771,-14.42 44.512,-14.491 44.756,-14.526C45.001,-14.564 45.658,-14.526 45.739,-14.458C45.832,-14.385 45.922,-14.032 45.922,-13.749C45.922,-13.464 46.201,-13.214 46.402,-13.186C46.608,-13.149 47,-13.608 47.146,-13.678C47.296,-13.749 47.473,-13.363 47.57,-13.464C47.657,-13.572 48.394,-13.431 48.7,-13.608C49.011,-13.782 49.185,-13.608 49.325,-13.678C49.475,-13.749 49.709,-14.137 49.709,-14.282C49.709,-14.42 49.839,-14.526 49.709,-14.735C49.603,-14.947 49.185,-14.808 48.73,-14.947C48.279,-15.089 48.747,-15.825 48.875,-15.444C48.956,-15.229 49.358,-15.444 49.662,-15.371C49.958,-15.305 49.839,-15.477 49.978,-15.477C50.133,-15.477 50.673,-15.305 50.964,-15.305C51.271,-15.305 51.504,-14.917 51.504,-14.917C51.504,-14.917 50.673,-14.632 50.496,-14.632C50.309,-14.632 50.426,-14.349 50.583,-14.349C50.732,-14.349 50.939,-14.246 51.156,-14.067C51.357,-13.887 52.284,-14.067 52.409,-14.067C52.528,-14.067 52.89,-13.887 53.245,-13.64C53.596,-13.398 53.838,-13.293 53.838,-13.293C53.838,-13.293 54.346,-13.293 54.856,-13.363C55.362,-13.431 56.021,-13.431 56.131,-13.328C56.245,-13.214 56.579,-13.119 56.829,-12.866C57.063,-12.619 57.239,-12.725 57.56,-12.761C57.899,-12.799 58.233,-12.866 58.524,-12.866C58.828,-12.866 59.812,-12.899 59.991,-12.587C60.162,-12.265 60.382,-12.337 60.382,-12.337C60.382,-12.337 60.646,-12.899 60.776,-13.008C60.893,-13.119 61.284,-12.934 61.51,-12.799C61.76,-12.654 62.914,-12.799 63.219,-12.725C63.52,-12.654 63.936,-12.303 63.696,-12.024C63.457,-11.736 63.876,-11.244 63.789,-10.959C63.696,-10.679 63.457,-10.644 63.219,-10.573C62.981,-10.506 63.457,-10.149 63.672,-9.902C63.876,-9.658 63.553,-9.588 63.335,-9.69C63.131,-9.797 62.591,-9.658 61.903,-9.44C61.214,-9.234 60.941,-8.802 60.232,-8.772C59.51,-8.737 59.812,-8.802 58.918,-8.802C58.014,-8.802 58.043,-8.525 57.864,-8.175C57.688,-7.816 57.967,-7.886 57.864,-7.607C57.779,-7.327 57.633,-7.01 57.633,-6.76C57.633,-6.514 57.095,-6.476 56.916,-6.267C56.729,-6.055 56.443,-5.529 55.924,-5.14C55.424,-4.749 55.058,-4.146 55.058,-4.146C55.058,-4.146 55.161,-4.749 55.395,-5.173C55.628,-5.594 55.123,-6.194 55.09,-6.653C55.058,-7.115 55.237,-7.257 55.541,-7.677C55.837,-8.101 56.555,-8.24 56.854,-8.455C57.154,-8.669 58.38,-9.658 58.38,-9.658C58.38,-9.658 58.144,-9.475 57.84,-9.338C57.546,-9.199 57.182,-8.914 56.945,-8.914C56.709,-8.914 56.796,-9.199 56.771,-9.475C56.729,-9.759 56.158,-9.547 55.962,-9.264C55.75,-8.987 55.362,-8.802 54.943,-8.455C54.53,-8.101 54.64,-8.136 54.376,-8.101C54.106,-8.066 53.658,-8.275 53.452,-8.455C53.245,-8.634 53.036,-8.313 52.385,-8.275C51.711,-8.24 50.964,-8.348 50.673,-8.313C50.369,-8.275 49.624,-7.257 49.185,-7.077C48.73,-6.903 48.157,-6.586 48.307,-6.338C48.462,-6.089 48.73,-6.55 48.858,-6.55C48.973,-6.55 48.761,-6.055 49.032,-6.055C49.298,-6.055 49.445,-6.229 49.709,-6.267C49.978,-6.305 50.203,-6.02 50.235,-5.627C50.309,-5.243 50.133,-4.928 50.016,-4.428C49.888,-3.934 49.709,-3.442 49.238,-3.018C48.761,-2.594 47.976,-1.82 47.834,-1.606C47.688,-1.399 47.146,-1.576 47.06,-1.712C46.97,-1.856 46.696,-1.399 46.492,-1.288C46.285,-1.184 46.079,-0.972 46.079,-0.69C46.079,-0.408 45.474,-0.408 45.474,-0.228C45.474,-0.06 45.832,0.44 45.981,0.685C46.128,0.934 45.949,1.711 45.683,1.885C45.411,2.065 45.305,2.271 44.938,2.031C44.577,1.78 44.884,1.641 45.027,1.246C45.169,0.864 44.884,0.652 44.824,0.543C44.756,0.44 44.512,0.758 44.403,0.787C44.272,0.825 44.272,0.473 44.373,0.266C44.455,0.051 44.313,-0.408 44.224,-0.44C44.126,-0.478 43.566,0.086 43.319,0.051C43.088,0.022 43.289,-0.617 43.379,-0.794C43.477,-0.972 43.202,-0.829 43.028,-0.658C42.849,-0.478 42.455,-0.088 42.306,-0.128C42.162,-0.161 41.857,0.155 42.107,0.369C42.338,0.578 42.431,0.758 42.572,0.787C42.732,0.825 43.115,0.725 43.268,0.685C43.409,0.652 43.705,0.934 43.409,1.246C43.115,1.57 42.485,1.606 42.604,1.815C42.732,2.031 43.028,2.344 43.268,2.838C43.496,3.336 43.409,3.865 43.477,4.254C43.528,4.643 42.604,5.452 42.338,5.697C42.072,5.947 41.809,6.544 41.354,6.829C40.904,7.112 39.953,7.359 39.807,7.253C39.648,7.147 39.226,7.43 39.255,7.819C39.296,8.206 39.491,8.168 39.491,8.28C39.491,8.378 39.198,8.804 39.081,8.981C38.962,9.155 38.538,8.981 38.603,8.453C38.66,7.918 38.962,7.712 38.932,7.462C38.904,7.215 38.639,7.073 38.448,7.288C38.274,7.497 37.706,8.095 37.706,8.095C37.706,8.095 37.921,8.737 38.188,8.981C38.448,9.228 38.639,9.584 38.991,10.109C39.345,10.644 39.081,11.1 38.991,11.489C38.904,11.874 38.603,11.874 38.361,11.948C38.125,12.015 38.07,12.121 37.98,12.336C37.894,12.548 37.448,13.556 37.389,13.384C37.332,13.208 36.959,12.015 36.959,12.015C36.959,12.015 36.686,11.379 36.308,11.065C35.908,10.744 35.772,10.603 35.772,10.923C35.772,11.243 35.527,11.841 35.527,12.056C35.527,12.265 34.992,11.415 34.992,11.065C34.992,10.711 34.897,10.109 34.925,9.543C34.968,8.981 34.3,9.508 34.3,9.508C34.3,9.508 33.789,10.774 33.643,10.774C33.496,10.774 33.643,9.616 33.67,9.196C33.702,8.769 33.525,8.378 33.434,8.24C33.338,8.095 32.838,7.535 32.746,7.147C32.664,6.759 32.485,6.897 32.295,7.112C32.118,7.326 32.181,7.326 31.461,7.326C30.744,7.326 30.776,7.851 30.423,8.168C30.06,8.487 29.766,9.089 29.339,9.296C28.918,9.508 28.755,9.723 28.755,9.97C28.755,10.22 28.91,11.03 28.823,11.382C28.733,11.736 28.505,12.056 28.302,12.406C28.095,12.754 27.907,13.323 27.733,13.323C27.558,13.323 27.486,12.83 27.486,12.51C27.486,12.198 26.984,11.453 26.867,11.208C26.748,10.958 26.297,9.864 26.297,9.864C26.297,9.864 25.936,8.698 25.963,8.378C25.992,8.066 25.992,7.183 25.992,7.183C25.992,7.183 25.52,7.747 25.306,7.712C25.102,7.674 24.89,7.288 24.917,6.829C24.955,6.365 24.558,6.408 24.354,6.335C24.14,6.264 23.873,5.628 23.724,5.628C23.58,5.628 23.482,5.628 23.371,5.84C23.254,6.052 22.629,6.017 22.472,6.017C22.322,6.017 21.421,5.982 21.165,5.873C20.888,5.77 20.584,5.137 20.439,5.064C20.282,4.992 19.848,5.452 19.665,5.381C19.489,5.314 19.133,4.96 18.742,4.745C18.356,4.536 18.233,4.042 18.082,3.719C17.935,3.409 17.422,3.898 17.484,4.254C17.541,4.605 18.201,5.064 18.201,5.314C18.201,5.561 18.312,5.628 18.642,5.947C18.973,6.264 18.709,6.441 18.918,6.511C19.133,6.582 19.429,6.229 19.723,6.052C20.024,5.873 19.997,5.628 20.149,5.628C20.282,5.628 20.255,6.085 20.497,6.12C20.738,6.153 21.371,6.582 21.516,6.867C21.668,7.147 21.371,7.326 21.244,7.569C21.122,7.819 20.766,8.525 20.467,8.804C20.174,9.089 19.848,9.475 19.394,9.584C18.948,9.682 18.886,9.97 18.524,10.005C18.171,10.04 17.18,10.603 17.03,10.711C16.887,10.815 16.077,11.1 15.833,10.991C15.599,10.888 15.512,10.187 15.419,9.647C15.324,9.125 15.218,8.842 15.126,8.628C15.025,8.416 14.501,7.851 14.374,7.747C14.254,7.639 13.958,6.794 13.928,6.441C13.901,6.085 13.564,6.229 13.518,5.84C13.444,5.452 13.124,4.919 13.056,4.669C13.01,4.425 12.398,4.71 12.176,4.745C11.926,4.783 11.475,4.536 11.54,3.969C11.589,3.409 11.842,3.409 12.135,3.409C12.437,3.409 12.306,3.227 12.616,2.874C12.909,2.521 13.01,1.815 13.037,1.361C13.056,0.899 12.82,1.114 12.586,1.187C12.35,1.246 11.986,1.361 11.869,1.323C11.738,1.284 11.269,1.114 11.182,1.214C11.089,1.323 10.581,1.246 10.464,1.073C10.342,0.899 9.747,0.685 9.69,0.543C9.63,0.405 9.69,-0.44 9.563,-0.658C9.44,-0.864 9.174,-0.617 9.033,-0.478C8.873,-0.335 8.465,-0.228 8.579,-0.128C8.696,-0.016 9.09,0.196 9.06,0.473C9.033,0.758 8.769,0.825 8.609,0.972C8.465,1.114 7.911,1.67 7.824,1.493C7.734,1.318 7.685,0.196 7.59,0.051C7.498,-0.088 7.237,-0.44 7.147,-0.76C7.058,-1.082 6.724,-1.184 6.522,-1.432C6.311,-1.679 5.716,-2.065 5.468,-2.347C5.235,-2.63 4.822,-2.847 4.778,-2.489C4.762,-2.138 5.205,-2.065 5.379,-1.712C5.558,-1.361 5.952,-1.149 6.169,-1.044C6.359,-0.94 6.938,-0.478 6.938,-0.478C6.938,-0.478 6.694,-0.373 6.487,-0.408C6.281,-0.44 6.607,0.35 6.577,0.6C6.547,0.85 6.194,0.513 6.131,0.231C6.066,-0.06 5.89,-0.373 5.773,-0.478C5.653,-0.582 4.879,-0.864 4.762,-0.94C4.634,-1.003 4.118,-1.399 4.072,-1.712C4.004,-2.03 3.564,-2.065 3.434,-1.992C3.328,-1.927 2.879,-1.538 2.662,-1.538C2.453,-1.538 2.13,-1.712 1.882,-1.75C1.657,-1.782 1.622,-1.288 1.535,-1.003C1.445,-0.722 1.051,-0.94 0.845,-0.69C0.625,-0.44 0.274,-0.199 0.364,0.022C0.462,0.231 0.608,0.231 0.334,0.405C0.06,0.578 -0.076,0.934 -0.353,0.972C-0.62,1.002 -0.983,1.146 -1.127,1.037C-1.274,0.934 -1.405,1.394 -1.483,1.496C-1.573,1.606 -1.728,1.187 -1.888,1.002C-2.035,0.825 -2.415,0.972 -2.532,0.934C-2.651,0.899 -2.769,0.578 -2.926,0.44C-3.075,0.298 -3.045,-0.016 -2.926,-0.128C-2.809,-0.228 -2.682,-0.408 -2.769,-0.722C-2.858,-1.044 -2.926,-1.75 -2.619,-1.893C-2.317,-2.03 -1.611,-1.893 -1.247,-1.893C-0.896,-1.893 -0.277,-1.742 -0.177,-1.959C-0.022,-2.274 0.03,-2.63 0,-2.948M11.269,-9.164C11.173,-8.827 11.958,-8.557 12.105,-8.802C12.247,-9.057 11.413,-9.658 11.269,-9.164M10.247,-0.617C10.307,-0.478 10.611,-0.829 10.847,-0.829C11.089,-0.829 11.632,-0.722 11.768,-0.972C11.926,-1.22 12.398,-1.253 12.79,-1.184C13.175,-1.117 13.518,-0.794 13.779,-0.76C14.047,-0.722 14.768,-0.794 15.009,-0.864C15.235,-0.94 15.178,-1.432 14.792,-1.679C14.401,-1.927 14.078,-2.315 13.713,-2.456C13.36,-2.594 13.246,-2.736 13.444,-2.809C13.662,-2.877 13.928,-3.157 13.635,-3.157C13.331,-3.157 13.056,-3.051 13.037,-2.877C13.01,-2.701 12.82,-2.489 12.703,-2.421C12.586,-2.347 12.282,-2.065 12.192,-2.274C12.105,-2.489 11.768,-3.127 11.632,-3.157C11.475,-3.192 11.239,-3.157 11.064,-2.809C10.885,-2.456 10.671,-2.1 10.494,-1.959C10.307,-1.82 10.076,-1.399 10.247,-1.326C10.435,-1.253 10.247,-0.617 10.247,-0.617M17.09,-3.092C16.737,-2.803 16.623,-2.421 16.756,-2.171C16.913,-1.927 17.337,-1.149 17.541,-1.082C17.748,-1.003 18.492,-0.864 18.201,-0.549C17.905,-0.228 17.837,-0.128 17.571,-0.161C17.297,-0.199 17.422,0.685 17.631,0.758C17.837,0.825 18.476,1.073 18.682,1.114C18.886,1.146 19.578,1.037 19.543,0.825C19.505,0.616 19.394,-0.228 19.152,-0.44C18.918,-0.658 19.489,-0.864 19.34,-1.044C19.187,-1.22 18.973,-1.149 18.858,-1.361C18.742,-1.576 18.682,-1.782 18.492,-1.927C18.312,-2.065 18.171,-1.782 18.201,-2.171C18.233,-2.559 18.642,-2.809 18.829,-2.594C19.005,-2.386 19.543,-2.489 19.665,-2.594C19.777,-2.701 19.429,-3.018 19.34,-3.233C19.25,-3.442 18.642,-3.622 18.555,-3.551C18.476,-3.474 18.233,-3.262 17.989,-3.092C17.748,-2.91 17.277,-3.233 17.09,-3.092" style="fill:rgb(187,187,187);fill-opacity:0.4;fill-rule:nonzero;"/>
                        </g>
                        <g transform="matrix(4.41459,0,0,4.41459,442.971,1100.09)">
                            <path d="M0,2.667C-0.215,2.931 -0.683,2.847 -1.024,2.629C-1.343,2.42 -1.73,2.385 -1.904,2.314C-2.095,2.243 -1.886,1.817 -1.668,1.714C-1.465,1.61 -0.896,1.29 -0.471,1.081C-0.061,0.872 0.06,0.439 0.361,0.439C0.654,0.439 2.103,0.092 2.273,0.16C2.45,0.233 3.316,0.304 3.493,0.016C3.681,-0.264 4.309,-0.082 4.161,0.16C4.004,0.407 3.463,0.975 3.113,0.872C2.757,0.758 1.725,0.799 1.298,0.872C0.842,0.937 0.418,1.255 0.024,1.502C-0.354,1.746 -0.274,2.034 -0.117,2.069C0.024,2.105 0.187,2.455 0,2.667" style="fill:rgb(187,187,187);fill-opacity:0.4;fill-rule:nonzero;"/>
                        </g>
                        <g transform="matrix(4.41459,0,0,4.41459,576.439,1157.22)">
                            <path d="M0,-3.25C-0.165,-3.192 -0.685,-3.317 -0.524,-2.82C-0.334,-2.332 -0.302,-1.976 -0.334,-1.587C-0.366,-1.199 -0.334,-0.387 -0.266,-0.286C-0.217,-0.18 0.027,0.067 0.18,-0.004C0.329,-0.071 0.114,-0.78 0.114,-0.919C0.114,-1.061 0.329,-1.275 0.454,-1.311C0.57,-1.34 0.454,-1.943 0.294,-2.193C0.146,-2.438 -0.06,-2.582 0.06,-2.611C0.18,-2.652 0.329,-2.927 0.236,-3.006C0.146,-3.07 0.204,-3.317 0,-3.25" style="fill:rgb(187,187,187);fill-opacity:0.4;fill-rule:nonzero;"/>
                        </g>
                        <g transform="matrix(4.41459,0,0,4.41459,575.102,1164.69)">
                            <path d="M0,-1.343C-0.223,-1.278 -0.296,-0.916 -0.296,-0.81C-0.296,-0.704 -1.133,-0.495 -0.855,-0.215C-0.601,0.07 -0.326,-0.139 0.084,-0.172C0.508,-0.215 0.899,-0.351 0.899,-0.351C0.899,-0.351 1.526,-0.319 1.442,-0.669C1.351,-1.022 0.698,-1.057 0.579,-1.022C0.451,-0.987 0.242,-1.413 0,-1.343" style="fill:rgb(187,187,187);fill-opacity:0.4;fill-rule:nonzero;"/>
                        </g>
                        <g transform="matrix(4.41459,0,0,4.41459,572.059,1182.94)">
                            <path d="M0,-4.099C-0.215,-3.945 -0.076,-3.32 -0.261,-2.896C-0.443,-2.477 -0.584,-2.083 -0.715,-2.083C-0.832,-2.083 -1.462,-1.804 -1.639,-1.592C-1.812,-1.38 -2.679,-1.771 -2.799,-1.592C-2.926,-1.412 -3.16,-1.206 -3.31,-1.065C-3.456,-0.923 -3.877,-1.027 -3.787,-0.606C-3.692,-0.182 -3.483,0.207 -3.31,0.207C-3.13,0.207 -2.894,0.063 -2.894,-0.321C-2.894,-0.711 -2.475,-0.321 -2.266,-0.356C-2.049,-0.388 -1.935,-0.638 -1.848,-0.923C-1.755,-1.206 -1.962,-0.78 -1.611,-0.676C-1.244,-0.565 -1.128,-0.85 -1.128,-0.956C-1.128,-1.065 -0.471,-1.239 -0.354,-1.347C-0.234,-1.453 0.247,-1.627 0.276,-1.771C0.307,-1.907 0.276,-2.722 0.435,-2.789C0.581,-2.866 0.774,-2.866 0.538,-3.355C0.307,-3.852 0.307,-4.306 0,-4.099" style="fill:rgb(187,187,187);fill-opacity:0.4;fill-rule:nonzero;"/>
                        </g>
                        <g transform="matrix(4.41459,0,0,4.41459,543.071,1200.54)">
                            <path d="M0,-1.132C-0.43,-1.048 -0.718,0.068 -0.354,0.036C0,-0.002 0.394,-1.2 0,-1.132" style="fill:rgb(187,187,187);fill-opacity:0.4;fill-rule:nonzero;"/>
                        </g>
                        <g transform="matrix(4.41459,0,0,4.41459,579.358,1320.68)">
                            <path d="M0,-0.814C-0.334,-0.425 0.328,-0.425 0.241,-0.037C0.146,0.354 0.682,0.21 0.831,0.139C0.988,0.069 1.342,-0.741 1.285,-0.956C1.223,-1.168 0.627,-0.602 0.478,-0.634C0.328,-0.675 0,-0.814 0,-0.814" style="fill:rgb(187,187,187);fill-opacity:0.4;fill-rule:nonzero;"/>
                        </g>
                        <g transform="matrix(4.41459,0,0,4.41459,569.722,1270.63)">
                            <path d="M0,7.773C0,7.407 -0.185,8.156 -0.302,7.838C-0.424,7.523 -0.185,6.994 -0.48,7.206C-0.776,7.415 -0.935,7.593 -0.959,7.773C-0.991,7.944 -1.519,8.015 -1.494,7.838C-1.461,7.659 -1.263,7.241 -1.461,7.064C-1.668,6.884 -2.029,6.814 -2.298,6.709C-2.569,6.605 -2.269,6.249 -2.982,6.425C-3.697,6.605 -3.966,6.814 -3.966,6.814C-3.966,6.814 -4.624,6.567 -4.836,6.852C-5.053,7.132 -5.175,8.031 -5.175,8.031C-5.175,8.031 -6.193,7.7 -6.362,7.732C-6.547,7.773 -6.843,8.053 -7.112,8.156C-7.381,8.262 -7.826,8.368 -8.011,8.194C-8.185,8.015 -8.486,7.7 -8.392,7.491C-8.305,7.276 -7.645,6.994 -7.884,6.64C-8.131,6.287 -8.277,6.216 -8.305,6.002C-8.337,5.793 -8.221,5.687 -8.576,5.26C-8.932,4.839 -8.845,4.344 -8.695,4.274C-8.535,4.198 -9.195,3.78 -9.307,3.603C-9.435,3.429 -9.021,2.791 -8.777,2.614C-8.535,2.44 -7.826,1.769 -7.628,1.769C-7.4,1.769 -7.077,1.873 -6.876,1.699C-6.666,1.522 -6.039,1.59 -6.039,1.455C-6.039,1.307 -6.21,0.172 -6.063,-0.007C-5.922,-0.181 -5.053,0.215 -4.966,0.072C-4.868,-0.067 -4.729,-0.667 -4.542,-0.774C-4.357,-0.879 -4.211,-1.126 -3.934,-0.774C-3.673,-0.423 -3.406,-0.279 -3.29,-0.632C-3.162,-0.985 -3.26,-0.879 -2.982,-1.2C-2.719,-1.515 -3.013,-2.042 -2.746,-1.73C-2.472,-1.409 -2.298,-1.162 -2.298,-1.162C-2.298,-1.162 -2.336,-1.871 -2.148,-1.871C-1.972,-1.871 -1.796,-1.515 -1.698,-1.515C-1.616,-1.515 -0.807,-1.73 -0.657,-1.48C-0.508,-1.227 -1.081,-0.562 -0.872,-0.314C-0.657,-0.067 -0.236,0.072 0.058,0.286C0.364,0.496 0.718,0.995 0.864,0.569C0.997,0.142 1.304,-0.488 1.111,-0.806C0.894,-1.126 1.154,-2.148 1.255,-2.216C1.345,-2.287 1.494,-1.409 1.799,-1.018C2.095,-0.632 2.396,-0.347 2.543,0.072C2.687,0.496 2.72,1.24 2.985,1.487C3.26,1.734 4.29,1.715 4.263,2.033C4.232,2.348 4.357,2.967 4.694,3.568C5.018,4.169 5.646,5.576 5.646,6.14C5.646,6.7 4.694,7.346 4.42,7.773C4.143,8.194 4.064,8.756 3.939,8.971C3.828,9.18 3.888,9.145 3.437,9.287C2.985,9.424 2.66,9.851 2.543,9.712C2.424,9.569 2.005,9.322 1.886,9.499C1.758,9.674 1.611,10.06 1.404,9.636C1.187,9.215 0.718,9.287 0.619,9.215C0.53,9.145 0.53,8.933 0.53,8.578C0.53,8.227 0.145,8.194 0.117,8.091C0.087,7.982 0,7.874 0,7.773" style="fill:rgb(187,187,187);fill-opacity:0.4;fill-rule:nonzero;"/>
                        </g>
                        <g transform="matrix(4.41459,0,0,4.41459,502.589,1253.33)">
                            <path d="M0,-4.971C-0.375,-4.884 0.541,-4.121 0.622,-4.021C0.721,-3.909 1.524,-3.103 1.524,-2.714C1.524,-2.328 1.782,-1.117 1.935,-0.973C2.084,-0.834 3.113,-0.592 3.228,-0.31C3.35,-0.03 3.61,0.041 3.61,-0.348C3.61,-0.731 3.673,-1.196 3.82,-1.408C3.978,-1.619 3.92,-1.94 3.673,-1.896C3.437,-1.869 3.228,-2.358 2.837,-2.679C2.453,-2.996 2.152,-3.205 1.802,-3.664C1.432,-4.121 0.994,-4.409 0.739,-4.654C0.517,-4.901 0.149,-5.012 0,-4.971" style="fill:rgb(187,187,187);fill-opacity:0.4;fill-rule:nonzero;"/>
                        </g>
                        <g transform="matrix(4.41459,0,0,4.41459,507.702,1240.43)">
                            <path d="M0,-3.92C-0.223,-3.885 -0.223,-3.356 -0.12,-3.173C0,-3.002 0.25,-3.103 0.394,-2.47C0.54,-1.837 0.848,-1.198 0.961,-0.953C1.078,-0.704 1.595,-0.356 1.769,-0.18C1.956,0 2.219,-0.25 2.1,-0.459C1.978,-0.671 1.741,-0.989 1.711,-1.236C1.679,-1.486 1.534,-1.872 1.296,-2.298C1.051,-2.72 0.848,-2.825 0.689,-3.103C0.54,-3.391 0,-3.92 0,-3.92" style="fill:rgb(187,187,187);fill-opacity:0.4;fill-rule:nonzero;"/>
                        </g>
                        <g transform="matrix(4.41459,0,0,4.41459,518.804,1255.22)">
                            <path d="M0,-0.602C-0.217,-0.279 0.061,-0.035 0.147,0.036C0.248,0.107 0.571,0.177 0.867,0.142C1.163,0.107 1.59,0.001 1.256,-0.208C0.933,-0.426 0.541,-0.208 0.422,-0.494C0.305,-0.779 0.128,-0.779 0,-0.602" style="fill:rgb(187,187,187);fill-opacity:0.4;fill-rule:nonzero;"/>
                        </g>
                        <g transform="matrix(4.41459,0,0,4.41459,526.478,1258.03)">
                            <path d="M0,-0.956C-0.218,-0.847 -0.538,-0.776 -0.305,-0.532C-0.06,-0.282 0.087,-0.176 0.442,-0.214C0.804,-0.252 1.331,0 1.377,-0.214C1.404,-0.423 1.043,-0.741 0.904,-0.741C0.747,-0.741 0,-0.956 0,-0.956" style="fill:rgb(187,187,187);fill-opacity:0.4;fill-rule:nonzero;"/>
                        </g>
                        <g transform="matrix(4.41459,0,0,4.41459,539.376,1259.76)">
                            <path d="M0,-0.179C-0.068,0.133 0.456,0.28 0.483,-0.075C0.513,-0.429 0.064,-0.459 0,-0.179" style="fill:rgb(187,187,187);fill-opacity:0.4;fill-rule:nonzero;"/>
                        </g>
                        <g transform="matrix(1.85108,4.00775,4.00775,-1.85108,546.386,1256.92)">
                            <path d="M0.641,-0.302C1.016,-0.425 0.729,0.393 0.729,0.393C0.729,0.393 0.865,0.851 0.641,0.954C0.417,1.058 -0.07,0.762 0.108,0.468C0.291,0.197 0.408,-0.225 0.641,-0.302" style="fill:rgb(187,187,187);fill-opacity:0.4;fill-rule:nonzero;"/>
                        </g>
                        <g transform="matrix(4.41459,0,0,4.41459,540.562,1251.48)">
                            <path d="M0,-2.013C-0.179,-1.94 -0.149,-1.766 -0.204,-1.408C-0.269,-1.059 -0.527,-0.81 -0.296,-0.635C-0.06,-0.461 0.394,-1.233 0.521,-0.989C0.633,-0.739 0.481,-0.635 0.685,-0.315C0.894,0 1.288,-0.035 1.288,-0.035C1.288,-0.035 1.255,-0.885 0.932,-1.092C0.601,-1.307 0.394,-1.551 0.777,-1.478C1.166,-1.408 1.378,-1.592 1.288,-1.801C1.195,-2.013 0.633,-1.909 0.454,-1.868C0.267,-1.833 0,-2.013 0,-2.013" style="fill:rgb(187,187,187);fill-opacity:0.4;fill-rule:nonzero;"/>
                        </g>
                        <g transform="matrix(4.41459,0,0,4.41459,541.394,1241.05)">
                            <path d="M0,-0.354C-0.218,-0.109 -0.061,0.141 0.266,0.103C0.587,0.068 1.273,-0.039 1.432,-0.039C1.581,-0.039 1.793,-0.495 1.665,-0.495C1.551,-0.495 0.703,-0.321 0.616,-0.283C0.524,-0.248 0,-0.354 0,-0.354" style="fill:rgb(187,187,187);fill-opacity:0.4;fill-rule:nonzero;"/>
                        </g>
                        <g transform="matrix(4.41459,0,0,4.41459,554.767,1242.77)">
                            <path d="M0,-1.235C-0.264,-1.374 -0.764,-0.07 -0.41,0.034C-0.047,0.139 0.226,-1.134 0,-1.235" style="fill:rgb(187,187,187);fill-opacity:0.4;fill-rule:nonzero;"/>
                        </g>
                        <g transform="matrix(4.41459,0,0,4.41459,536.755,1247.73)">
                            <path d="M0,-4.232C-0.014,-4.479 -0.483,-4.164 -0.511,-3.915C-0.543,-3.667 -0.177,-3.455 -0.752,-3.455C-1.31,-3.455 -1.345,-2.925 -1.464,-2.817C-1.584,-2.713 -1.703,-2.683 -1.945,-2.607C-2.182,-2.543 -2.241,-2.257 -2.295,-2.078C-2.357,-1.904 -2.779,-2.396 -2.901,-2.257C-3.016,-2.113 -2.937,-1.445 -2.732,-0.879C-2.516,-0.317 -1.967,0.039 -1.817,0.039C-1.671,0.039 -1.377,0.039 -1.16,0.112C-0.95,0.18 -0.277,0.247 -0.307,-0.07C-0.337,-0.379 -0.383,-0.879 -0.09,-1.198C0.201,-1.515 0.497,-1.689 0.354,-2.151C0.201,-2.607 -0.09,-2.89 0.114,-3.099C0.334,-3.314 0.568,-3.384 0.568,-3.564C0.568,-3.741 0.068,-3.067 0,-4.232" style="fill:rgb(187,187,187);fill-opacity:0.4;fill-rule:nonzero;"/>
                        </g>
                        <g transform="matrix(4.41459,0,0,4.41459,543.209,1222.49)">
                            <path d="M0,-3.493C-0.206,-3.493 0.032,-3.105 -0.269,-2.855C-0.567,-2.61 -0.894,-2.508 -0.717,-2.081C-0.541,-1.657 0.084,-1.339 -0.057,-1.165C-0.206,-0.986 -0.66,-0.633 -0.717,-0.312C-0.777,0 0,-0.806 0.204,-1.127C0.418,-1.442 0.831,-1.265 0.924,-1.442L1.021,-1.625C1.021,-1.625 0.687,-1.692 0.418,-1.796C0.145,-1.901 -0.187,-1.513 -0.032,-2.081C0.114,-2.645 0.57,-2.54 0.47,-2.961C0.389,-3.39 0.084,-3.493 0,-3.493" style="fill:rgb(187,187,187);fill-opacity:0.4;fill-rule:nonzero;"/>
                        </g>
                        <g transform="matrix(4.41459,0,0,4.41459,544.36,1223.42)">
                            <path d="M0,-0.631C-0.095,-0.588 -0.339,0.037 -0.019,0.037C0.311,0.037 0.878,0.145 0.761,-0.033C0.634,-0.213 0.337,-0.776 0,-0.631" style="fill:rgb(187,187,187);fill-opacity:0.4;fill-rule:nonzero;"/>
                        </g>
                        <g transform="matrix(4.41459,0,0,4.41459,548.749,1221.52)">
                            <path d="M0,-0.731C-0.117,-0.739 -0.514,0.008 0.021,-0.025C0.57,-0.057 0.41,-0.696 0,-0.731" style="fill:rgb(187,187,187);fill-opacity:0.4;fill-rule:nonzero;"/>
                        </g>
                        <g transform="matrix(4.41459,0,0,4.41459,549.141,1230.61)">
                            <path d="M0,-1.483C-0.421,-0.85 -0.391,-0.989 -0.687,-1.13C-0.983,-1.271 -1.464,-0.815 -1.374,-0.638C-1.287,-0.462 -0.63,-0.673 -0.48,-0.356C-0.323,-0.036 -0.323,0 -0.04,-0.076C0.267,-0.141 0.57,-0.638 0.481,-0.88C0.381,-1.13 0,-1.483 0,-1.483" style="fill:rgb(187,187,187);fill-opacity:0.4;fill-rule:nonzero;"/>
                        </g>
                        <g transform="matrix(4.41459,0,0,4.41459,558.113,1260.52)">
                            <path d="M0,-4.092C-0.229,-3.825 -0.323,-3.813 0.185,-3.703C0.685,-3.598 0.834,-3.598 0.628,-3.316C0.416,-3.035 0.267,-2.685 0.451,-2.65C0.628,-2.606 1.165,-2.788 1.226,-2.65C1.29,-2.511 1.111,-2.47 1.695,-2.364C2.298,-2.261 2.423,-2.011 2.54,-1.867C2.657,-1.726 3.013,-1.27 2.776,-1.27C2.54,-1.27 2.266,-0.916 2.445,-0.881C2.63,-0.846 3.159,-0.987 3.189,-0.881C3.228,-0.78 3.523,-0.107 3.816,-0.14C4.124,-0.178 4.298,-0.816 4.444,-0.987C4.604,-1.163 5.202,-1.27 5.251,-0.957C5.319,-0.637 5.496,-0.319 5.859,-0.107C6.21,0.108 6.637,0.32 6.664,0.143C6.693,-0.039 6.487,-0.707 6.24,-0.816C6.009,-0.916 5.583,-1.52 5.583,-1.767C5.583,-2.011 5.222,-2.082 5.053,-2.261C4.871,-2.435 4.725,-2.93 4.268,-3.035C3.816,-3.141 3.697,-3.316 3.228,-3.598C2.749,-3.883 1.671,-3.883 1.638,-3.703C1.616,-3.53 1.638,-3.703 1.29,-3.848C0.932,-3.988 0.657,-3.848 0.565,-4.092C0.48,-4.342 0.267,-4.412 0,-4.092" style="fill:rgb(187,187,187);fill-opacity:0.4;fill-rule:nonzero;"/>
                        </g>
                    </g>
                    <g transform="matrix(4.41459,0,0,4.41459,159.741,1217.56)">
                        <path d="M0,4.167C-0.424,3.746 -0.636,3.144 -0.636,2.358L-0.636,-0.633L0.6,-0.633L0.6,2.312C0.6,3.271 0.997,3.749 1.79,3.749C2.179,3.749 2.475,3.632 2.676,3.401C2.879,3.17 2.982,2.807 2.982,2.312L2.982,-0.633L4.203,-0.633L4.203,2.358C4.203,3.144 3.991,3.746 3.564,4.167C3.14,4.591 2.545,4.8 1.785,4.8C1.019,4.8 0.424,4.591 0,4.167" style="fill:rgb(57,57,57);fill-rule:nonzero;"/>
                    </g>
                    <g transform="matrix(4.41459,0,0,4.41459,205.334,1238.35)">
                        <path d="M0,-5.344L0,0L-1.016,0L-3.681,-3.244L-3.681,0L-4.901,0L-4.901,-5.344L-3.879,-5.344L-1.223,-2.101L-1.223,-5.344L0,-5.344Z" style="fill:rgb(57,57,57);fill-rule:nonzero;"/>
                    </g>
                    <g transform="matrix(4.41459,0,0,4.41459,-2585.3,999.17)">
                        <rect x="633.405" y="48.834" width="1.236" height="5.344" style="fill:rgb(57,57,57);"/>
                    </g>
                    <g transform="matrix(4.41459,0,0,4.41459,244.524,1238.35)">
                        <path d="M0,-5.344L-2.315,0L-3.537,0L-5.841,-5.344L-4.504,-5.344L-2.88,-1.528L-1.231,-5.344L0,-5.344Z" style="fill:rgb(57,57,57);fill-rule:nonzero;"/>
                    </g>
                    <g transform="matrix(4.41459,0,0,4.41459,264.736,1219.13)">
                        <path d="M0,3.362L0,4.353L-4.137,4.353L-4.137,-0.991L-0.098,-0.991L-0.098,0.004L-2.91,0.004L-2.91,1.164L-0.426,1.164L-0.426,2.126L-2.91,2.126L-2.91,3.362L0,3.362Z" style="fill:rgb(57,57,57);fill-rule:nonzero;"/>
                    </g>
                    <g transform="matrix(4.41459,0,0,4.41459,284.121,1214.76)">
                        <path d="M0,5.344L-1.029,3.855L-2.168,3.855L-2.168,5.344L-3.404,5.344L-3.404,0L-1.092,0C-0.619,0 -0.209,0.078 0.142,0.237C0.492,0.394 0.758,0.616 0.948,0.907C1.136,1.198 1.228,1.54 1.228,1.94C1.228,2.336 1.133,2.679 0.943,2.966C0.752,3.254 0.481,3.475 0.128,3.626L1.329,5.344L0,5.344ZM-0.312,1.247C-0.508,1.086 -0.791,1.008 -1.16,1.008L-2.168,1.008L-2.168,2.871L-1.16,2.871C-0.791,2.871 -0.508,2.787 -0.312,2.627C-0.12,2.464 -0.024,2.233 -0.024,1.94C-0.024,1.638 -0.12,1.409 -0.312,1.247" style="fill:rgb(57,57,57);fill-rule:nonzero;"/>
                    </g>
                    <g transform="matrix(4.41459,0,0,4.41459,296.201,1215.11)">
                        <path d="M0,5.183C-0.394,5.069 -0.712,4.919 -0.951,4.738L-0.53,3.805C-0.302,3.974 -0.03,4.107 0.285,4.21C0.603,4.311 0.918,4.363 1.233,4.363C1.583,4.363 1.845,4.311 2.01,4.204C2.179,4.102 2.263,3.963 2.263,3.789C2.263,3.662 2.211,3.555 2.113,3.471C2.016,3.39 1.888,3.322 1.73,3.27C1.578,3.219 1.366,3.164 1.103,3.102C0.695,3.007 0.361,2.909 0.103,2.811C-0.158,2.716 -0.38,2.561 -0.565,2.347C-0.75,2.132 -0.845,1.847 -0.845,1.491C-0.845,1.181 -0.761,0.899 -0.592,0.649C-0.424,0.396 -0.171,0.195 0.168,0.048C0.505,-0.098 0.918,-0.171 1.407,-0.171C1.75,-0.171 2.081,-0.13 2.407,-0.049C2.733,0.032 3.021,0.149 3.263,0.301L2.882,1.241C2.388,0.961 1.894,0.82 1.399,0.82C1.054,0.82 0.799,0.874 0.633,0.989C0.467,1.1 0.383,1.246 0.383,1.431C0.383,1.613 0.481,1.749 0.671,1.838C0.861,1.928 1.154,2.015 1.546,2.102C1.953,2.2 2.285,2.295 2.545,2.393C2.806,2.491 3.026,2.64 3.214,2.849C3.398,3.058 3.494,3.341 3.494,3.7C3.494,4.003 3.407,4.281 3.235,4.534C3.067,4.787 2.812,4.985 2.469,5.134C2.13,5.281 1.714,5.354 1.225,5.354C0.801,5.354 0.394,5.297 0,5.183" style="fill:rgb(57,57,57);fill-rule:nonzero;"/>
                    </g>
                    <g transform="matrix(4.41459,0,0,4.41459,-2585.3,999.17)">
                        <rect x="657.061" y="48.834" width="1.239" height="5.344" style="fill:rgb(57,57,57);"/>
                    </g>
                    <g transform="matrix(4.41459,0,0,4.41459,326.411,1238.35)">
                        <path d="M0,-5.344L2.426,-5.344C3.01,-5.344 3.521,-5.233 3.966,-5.013C4.412,-4.79 4.757,-4.48 5.004,-4.078C5.251,-3.673 5.376,-3.208 5.376,-2.671C5.376,-2.138 5.251,-1.668 5.004,-1.269C4.757,-0.865 4.412,-0.555 3.966,-0.332C3.521,-0.112 3.01,0 2.426,0L0,0L0,-5.344ZM2.369,-1.017C2.901,-1.017 3.328,-1.163 3.646,-1.462C3.964,-1.761 4.124,-2.162 4.124,-2.671C4.124,-3.182 3.964,-3.583 3.646,-3.882C3.328,-4.181 2.901,-4.328 2.369,-4.328L1.239,-4.328L1.239,-1.017L2.369,-1.017Z" style="fill:rgb(57,57,57);fill-rule:nonzero;"/>
                    </g>
                    <g transform="matrix(4.41459,0,0,4.41459,369.445,1219.82)">
                        <path d="M0,3.051L-2.48,3.051L-2.953,4.197L-4.222,4.197L-1.839,-1.146L-0.619,-1.146L1.771,4.197L0.473,4.197L0,3.051ZM-0.388,2.114L-1.236,0.066L-2.083,2.114L-0.388,2.114Z" style="fill:rgb(57,57,57);fill-rule:nonzero;"/>
                    </g>
                    <g transform="matrix(4.41459,0,0,4.41459,379.729,1238.35)">
                        <path d="M0,-5.344L2.426,-5.344C3.007,-5.344 3.521,-5.233 3.966,-5.013C4.412,-4.79 4.757,-4.48 5.004,-4.078C5.251,-3.673 5.376,-3.208 5.376,-2.671C5.376,-2.138 5.251,-1.668 5.004,-1.269C4.757,-0.865 4.412,-0.555 3.966,-0.332C3.521,-0.112 3.007,0 2.426,0L0,0L0,-5.344ZM2.366,-1.017C2.901,-1.017 3.328,-1.163 3.646,-1.462C3.963,-1.761 4.124,-2.162 4.124,-2.671C4.124,-3.182 3.963,-3.583 3.646,-3.882C3.328,-4.181 2.901,-4.328 2.366,-4.328L1.239,-4.328L1.239,-1.017L2.366,-1.017Z" style="fill:rgb(57,57,57);fill-rule:nonzero;"/>
                    </g>
                    <g transform="matrix(4.41459,0,0,4.41459,432.633,1219.82)">
                        <path d="M0,3.051L-2.48,3.051L-2.953,4.197L-4.222,4.197L-1.839,-1.146L-0.62,-1.146L1.771,4.197L0.473,4.197L0,3.051ZM-0.389,2.114L-1.236,0.066L-2.084,2.114L-0.389,2.114Z" style="fill:rgb(57,57,57);fill-rule:nonzero;"/>
                    </g>
                    <g transform="matrix(4.41459,0,0,4.41459,463.406,1224.88)">
                        <path d="M0,0.757C0.174,0.982 0.261,1.262 0.261,1.593C0.261,2.061 0.078,2.422 -0.286,2.672C-0.649,2.924 -1.18,3.049 -1.878,3.049L-4.641,3.049L-4.641,-2.292L-2.03,-2.292C-1.381,-2.292 -0.878,-2.169 -0.53,-1.919C-0.183,-1.67 -0.009,-1.33 -0.009,-0.903C-0.009,-0.645 -0.068,-0.412 -0.193,-0.208C-0.318,-0.004 -0.495,0.156 -0.718,0.273C-0.413,0.368 -0.175,0.531 0,0.757M-3.412,-1.362L-3.412,-0.101L-2.182,-0.101C-1.878,-0.101 -1.646,-0.156 -1.486,-0.263C-1.332,-0.368 -1.25,-0.525 -1.25,-0.735C-1.25,-0.944 -1.332,-1.101 -1.486,-1.205C-1.646,-1.31 -1.878,-1.362 -2.182,-1.362L-3.412,-1.362ZM-1.231,1.96C-1.065,1.852 -0.984,1.686 -0.984,1.463C-0.984,1.02 -1.312,0.797 -1.968,0.797L-3.412,0.797L-3.412,2.12L-1.968,2.12C-1.645,2.12 -1.399,2.066 -1.231,1.96" style="fill:rgb(57,57,57);fill-rule:nonzero;"/>
                    </g>
                    <g transform="matrix(4.41459,0,0,4.41459,-2585.3,999.17)">
                        <rect x="691.796" y="48.834" width="1.238" height="5.344" style="fill:rgb(57,57,57);"/>
                    </g>
                    <g transform="matrix(4.41459,0,0,4.41459,498.011,1219.13)">
                        <path d="M0,3.362L0,4.353L-4.138,4.353L-4.138,-0.991L-0.098,-0.991L-0.098,0.004L-2.909,0.004L-2.909,1.164L-0.427,1.164L-0.427,2.126L-2.909,2.126L-2.909,3.362L0,3.362Z" style="fill:rgb(57,57,57);fill-rule:nonzero;"/>
                    </g>
                    <g transform="matrix(4.41459,0,0,4.41459,517.398,1214.76)">
                        <path d="M0,5.344L-1.033,3.855L-2.168,3.855L-2.168,5.344L-3.404,5.344L-3.404,0L-1.093,0C-0.62,0 -0.21,0.078 0.141,0.237C0.488,0.394 0.758,0.616 0.947,0.907C1.135,1.198 1.228,1.54 1.228,1.94C1.228,2.336 1.133,2.679 0.942,2.966C0.749,3.254 0.48,3.475 0.127,3.626L1.328,5.344L0,5.344ZM-0.312,1.247C-0.509,1.086 -0.791,1.008 -1.16,1.008L-2.168,1.008L-2.168,2.871L-1.16,2.871C-0.791,2.871 -0.509,2.787 -0.312,2.627C-0.12,2.464 -0.025,2.233 -0.025,1.94C-0.025,1.638 -0.12,1.409 -0.312,1.247" style="fill:rgb(57,57,57);fill-rule:nonzero;"/>
                    </g>
                    <g transform="matrix(4.41459,0,0,4.41459,531.677,1233.9)">
                        <path d="M0,-3.328L-1.711,-3.328L-1.711,-4.336L2.948,-4.336L2.948,-3.328L1.236,-3.328L1.236,1.008L0,1.008L0,-3.328Z" style="fill:rgb(57,57,57);fill-rule:nonzero;"/>
                    </g>
                    <g transform="matrix(4.41459,0,0,4.41459,561.975,1219.82)">
                        <path d="M0,3.051L-2.48,3.051L-2.953,4.197L-4.222,4.197L-1.84,-1.146L-0.619,-1.146L1.771,4.197L0.473,4.197L0,3.051ZM-0.389,2.114L-1.236,0.066L-2.084,2.114L-0.389,2.114Z" style="fill:rgb(57,57,57);fill-rule:nonzero;"/>
                    </g>
                    <g transform="matrix(4.41459,0,0,4.41459,593.119,1223.12)">
                        <path d="M0,1.556L0,3.45L-1.236,3.45L-1.236,1.542L-3.307,-1.894L-1.991,-1.894L-0.565,0.48L0.863,-1.894L2.075,-1.894L0,1.556Z" style="fill:rgb(57,57,57);fill-rule:nonzero;"/>
                    </g>
                    <g transform="matrix(4.41459,0,0,4.41459,176.009,1260.24)">
                        <path d="M0,3.056L-2.48,3.056L-2.956,4.2L-4.222,4.2L-1.839,-1.144L-0.619,-1.144L1.771,4.2L0.473,4.2L0,3.056ZM-0.391,2.116L-1.236,0.07L-2.083,2.116L-0.391,2.116Z" style="fill:rgb(57,57,57);fill-rule:nonzero;"/>
                    </g>
                    <g transform="matrix(4.41459,0,0,4.41459,195.83,1278.78)">
                        <path d="M0,-5.344L2.426,-5.344C3.007,-5.344 3.521,-5.233 3.966,-5.012C4.412,-4.789 4.757,-4.48 5.004,-4.074C5.251,-3.673 5.376,-3.205 5.376,-2.67C5.376,-2.138 5.251,-1.668 5.004,-1.269C4.757,-0.864 4.412,-0.554 3.966,-0.331C3.521,-0.109 3.007,0 2.426,0L0,0L0,-5.344ZM2.366,-1.016C2.899,-1.016 3.328,-1.162 3.646,-1.461C3.961,-1.76 4.121,-2.162 4.121,-2.67C4.121,-3.178 3.961,-3.583 3.646,-3.882C3.328,-4.178 2.899,-4.327 2.366,-4.327L1.236,-4.327L1.236,-1.016L2.366,-1.016Z" style="fill:rgb(57,57,57);fill-rule:nonzero;"/>
                    </g>
                    <g transform="matrix(4.41459,0,0,4.41459,-2585.3,1080.05)">
                        <rect x="636.29" y="39.674" width="1.239" height="5.344" style="fill:rgb(57,57,57);"/>
                    </g>
                    <g transform="matrix(4.41459,0,0,4.41459,237.059,1255.55)">
                        <path d="M0,5.183C-0.396,5.069 -0.711,4.919 -0.951,4.738L-0.532,3.806C-0.301,3.974 -0.03,4.108 0.286,4.21C0.604,4.314 0.918,4.363 1.231,4.363C1.584,4.363 1.842,4.311 2.011,4.208C2.179,4.102 2.263,3.963 2.263,3.789C2.263,3.662 2.211,3.559 2.114,3.474C2.016,3.39 1.888,3.323 1.73,3.271C1.576,3.222 1.367,3.164 1.103,3.102C0.696,3.007 0.361,2.91 0.104,2.812C-0.157,2.716 -0.38,2.562 -0.565,2.347C-0.75,2.135 -0.845,1.85 -0.845,1.495C-0.845,1.182 -0.76,0.899 -0.592,0.649C-0.424,0.397 -0.171,0.199 0.168,0.051C0.505,-0.098 0.918,-0.171 1.407,-0.171C1.75,-0.171 2.081,-0.13 2.407,-0.051C2.733,0.033 3.019,0.149 3.263,0.301L2.882,1.242C2.388,0.961 1.894,0.821 1.399,0.821C1.054,0.821 0.799,0.874 0.633,0.989C0.467,1.103 0.383,1.249 0.383,1.432C0.383,1.614 0.481,1.749 0.671,1.839C0.861,1.929 1.155,2.016 1.546,2.105C1.954,2.201 2.285,2.295 2.546,2.393C2.804,2.491 3.026,2.643 3.214,2.852C3.399,3.062 3.494,3.341 3.494,3.7C3.494,4.004 3.407,4.284 3.236,4.534C3.067,4.787 2.812,4.985 2.47,5.134C2.13,5.281 1.712,5.354 1.226,5.354C0.802,5.354 0.394,5.3 0,5.183" style="fill:rgb(57,57,57);fill-rule:nonzero;"/>
                    </g>
                    <g transform="matrix(4.41459,0,0,4.41459,260.77,1274.34)">
                        <path d="M0,-3.328L-1.711,-3.328L-1.711,-4.336L2.948,-4.336L2.948,-3.328L1.236,-3.328L1.236,1.008L0,1.008L0,-3.328Z" style="fill:rgb(57,57,57);fill-rule:nonzero;"/>
                    </g>
                    <g transform="matrix(4.41459,0,0,4.41459,291.067,1260.24)">
                        <path d="M0,3.056L-2.48,3.056L-2.953,4.2L-4.222,4.2L-1.839,-1.144L-0.619,-1.144L1.771,4.2L0.473,4.2L0,3.056ZM-0.388,2.116L-1.236,0.07L-2.083,2.116L-0.388,2.116Z" style="fill:rgb(57,57,57);fill-rule:nonzero;"/>
                    </g>
                    <g transform="matrix(4.41459,0,0,4.41459,322.982,1278.78)">
                        <path d="M0,-5.344L0,0L-1.016,0L-3.681,-3.243L-3.681,0L-4.901,0L-4.901,-5.344L-3.879,-5.344L-1.223,-2.097L-1.223,-5.344L0,-5.344Z" style="fill:rgb(57,57,57);fill-rule:nonzero;"/>
                    </g>
                    <g transform="matrix(4.41459,0,0,4.41459,333.35,1256.35)">
                        <path d="M0,4.818C-0.443,4.582 -0.788,4.254 -1.041,3.835C-1.291,3.414 -1.416,2.938 -1.416,2.412C-1.416,1.881 -1.291,1.406 -1.041,0.985C-0.788,0.564 -0.443,0.238 0,0.002C0.44,-0.238 0.935,-0.354 1.483,-0.354C1.948,-0.354 2.366,-0.273 2.741,-0.11C3.113,0.053 3.428,0.287 3.684,0.594L2.888,1.325C2.526,0.909 2.081,0.7 1.545,0.7C1.214,0.7 0.918,0.77 0.66,0.918C0.399,1.064 0.198,1.265 0.051,1.526C-0.092,1.784 -0.166,2.077 -0.166,2.412C-0.166,2.74 -0.092,3.036 0.051,3.297C0.198,3.555 0.399,3.758 0.66,3.9C0.918,4.047 1.214,4.12 1.545,4.12C2.081,4.12 2.526,3.908 2.888,3.487L3.684,4.217C3.428,4.53 3.113,4.766 2.735,4.929C2.361,5.092 1.939,5.172 1.475,5.172C0.932,5.172 0.44,5.054 0,4.818" style="fill:rgb(57,57,57);fill-rule:nonzero;"/>
                    </g>
                    <g transform="matrix(4.41459,0,0,4.41459,-2585.3,1080.05)">
                        <rect x="665.651" y="39.674" width="1.239" height="5.344" style="fill:rgb(57,57,57);"/>
                    </g>
                    <g transform="matrix(4.41459,0,0,4.41459,379.863,1260.24)">
                        <path d="M0,3.056L-2.48,3.056L-2.953,4.2L-4.222,4.2L-1.839,-1.144L-0.62,-1.144L1.771,4.2L0.473,4.2L0,3.056ZM-0.389,2.116L-1.236,0.07L-2.084,2.116L-0.389,2.116Z" style="fill:rgb(57,57,57);fill-rule:nonzero;"/>
                    </g>
                    <g transform="matrix(4.41459,0,0,4.41459,399.681,1278.78)">
                        <path d="M0,-5.344L2.426,-5.344C3.007,-5.344 3.521,-5.233 3.966,-5.012C4.412,-4.789 4.757,-4.48 5.004,-4.074C5.249,-3.673 5.374,-3.205 5.374,-2.67C5.374,-2.138 5.249,-1.668 5.004,-1.269C4.757,-0.864 4.412,-0.554 3.966,-0.331C3.521,-0.109 3.007,0 2.426,0L0,0L0,-5.344ZM2.366,-1.016C2.901,-1.016 3.328,-1.162 3.646,-1.461C3.961,-1.76 4.121,-2.162 4.121,-2.67C4.121,-3.178 3.961,-3.583 3.646,-3.882C3.328,-4.178 2.901,-4.327 2.366,-4.327L1.239,-4.327L1.239,-1.016L2.366,-1.016Z" style="fill:rgb(57,57,57);fill-rule:nonzero;"/>
                    </g>
                    <g transform="matrix(4.41459,0,0,4.41459,445.782,1259.56)">
                        <path d="M0,3.362L0,4.353L-4.138,4.353L-4.138,-0.991L-0.099,-0.991L-0.099,0.004L-2.91,0.004L-2.91,1.164L-0.427,1.164L-0.427,2.126L-2.91,2.126L-2.91,3.362L0,3.362Z" style="fill:rgb(57,57,57);fill-rule:nonzero;"/>
                    </g>
                    <g transform="matrix(4.41459,0,0,4.41459,481.133,1255.19)">
                        <path d="M0,5.344L-0.008,2.138L-1.581,4.779L-2.138,4.779L-3.702,2.206L-3.702,5.344L-4.862,5.344L-4.862,0L-3.838,0L-1.839,3.323L0.131,0L1.146,0L1.16,5.344L0,5.344Z" style="fill:rgb(57,57,57);fill-rule:nonzero;"/>
                    </g>
                    <g transform="matrix(4.41459,0,0,4.41459,510.112,1252.79)">
                        <path d="M0,4.897L0,5.888L-4.137,5.888L-4.137,0.544L-0.098,0.544L-0.098,1.539L-2.909,1.539L-2.909,2.699L-0.426,2.699L-0.426,3.661L-2.909,3.661L-2.909,4.897L0,4.897ZM-1.779,-0.991L-0.494,-0.991L-1.88,0.11L-2.809,0.11L-1.779,-0.991Z" style="fill:rgb(57,57,57);fill-rule:nonzero;"/>
                    </g>
                    <g transform="matrix(4.41459,0,0,4.41459,529.09,1255.19)">
                        <path d="M0,5.344L-1.291,3.489L-2.557,5.344L-3.978,5.344L-2,2.627L-3.877,0L-2.476,0L-1.245,1.734L-0.038,0L1.298,0L-0.565,2.581L1.426,5.344L0,5.344Z" style="fill:rgb(57,57,57);fill-rule:nonzero;"/>
                    </g>
                    <g transform="matrix(4.41459,0,0,4.41459,-2585.3,1080.05)">
                        <rect x="707.395" y="39.674" width="1.239" height="5.344" style="fill:rgb(57,57,57);"/>
                    </g>
                    <g transform="matrix(4.41459,0,0,4.41459,553.379,1256.35)">
                        <path d="M0,4.818C-0.443,4.582 -0.788,4.254 -1.041,3.835C-1.291,3.414 -1.416,2.938 -1.416,2.412C-1.416,1.881 -1.291,1.406 -1.041,0.985C-0.788,0.564 -0.443,0.238 0,0.002C0.439,-0.238 0.934,-0.354 1.482,-0.354C1.947,-0.354 2.365,-0.273 2.738,-0.11C3.112,0.053 3.428,0.287 3.684,0.594L2.888,1.325C2.526,0.909 2.08,0.7 1.545,0.7C1.214,0.7 0.918,0.77 0.659,0.918C0.398,1.064 0.198,1.265 0.051,1.526C-0.093,1.784 -0.166,2.077 -0.166,2.412C-0.166,2.74 -0.093,3.036 0.051,3.297C0.198,3.555 0.398,3.758 0.659,3.9C0.918,4.047 1.214,4.12 1.545,4.12C2.08,4.12 2.526,3.908 2.888,3.487L3.684,4.217C3.428,4.53 3.112,4.766 2.735,4.929C2.36,5.092 1.939,5.172 1.475,5.172C0.932,5.172 0.439,5.054 0,4.818" style="fill:rgb(57,57,57);fill-rule:nonzero;"/>
                    </g>
                    <g transform="matrix(4.41459,0,0,4.41459,577.607,1256.37)">
                        <path d="M0,4.81C-0.445,4.572 -0.793,4.243 -1.049,3.822C-1.299,3.401 -1.424,2.93 -1.424,2.406C-1.424,1.882 -1.299,1.41 -1.049,0.991C-0.793,0.57 -0.445,0.241 0,-0.001C0.445,-0.24 0.945,-0.359 1.5,-0.359C2.054,-0.359 2.554,-0.24 2.994,-0.001C3.439,0.241 3.787,0.57 4.04,0.991C4.295,1.41 4.423,1.882 4.423,2.406C4.423,2.93 4.295,3.401 4.04,3.822C3.787,4.243 3.439,4.572 2.994,4.81C2.554,5.049 2.054,5.169 1.5,5.169C0.945,5.169 0.445,5.049 0,4.81M2.353,3.898C2.608,3.753 2.81,3.55 2.953,3.291C3.1,3.031 3.173,2.735 3.173,2.406C3.173,2.075 3.1,1.779 2.953,1.521C2.81,1.26 2.608,1.059 2.353,0.912C2.101,0.768 1.814,0.695 1.5,0.695C1.185,0.695 0.899,0.768 0.644,0.912C0.389,1.059 0.19,1.26 0.044,1.521C-0.101,1.779 -0.174,2.075 -0.174,2.406C-0.174,2.735 -0.101,3.031 0.044,3.291C0.19,3.55 0.389,3.753 0.644,3.898C0.899,4.041 1.185,4.115 1.5,4.115C1.814,4.115 2.101,4.041 2.353,3.898" style="fill:rgb(57,57,57);fill-rule:nonzero;"/>
                    </g>
                    <g transform="matrix(4.41459,0,0,4.41459,99.2649,1086.68)">
                        <path d="M0,17.998C-1.907,16.123 -2.86,13.467 -2.86,10.024L-2.86,-2.812L3.692,-2.812L3.692,9.826C3.692,13.531 5.156,15.384 8.09,15.384C11.002,15.384 12.458,13.531 12.458,9.826L12.458,-2.812L18.908,-2.812L18.908,10.024C18.908,13.467 17.954,16.123 16.047,17.998C14.14,19.872 11.464,20.81 8.025,20.81C4.583,20.81 1.91,19.872 0,17.998" style="fill:rgb(57,57,57);fill-rule:nonzero;"/>
                    </g>
                    <g transform="matrix(4.41459,0,0,4.41459,276.282,1167.73)">
                        <path d="M0,-14.256C1.355,-12.933 2.035,-10.937 2.035,-8.269L2.035,1.986L-4.251,1.986L-4.251,-7.241C-4.251,-9.693 -5.232,-10.914 -7.193,-10.914C-8.275,-10.914 -9.141,-10.562 -9.793,-9.858C-10.442,-9.152 -10.769,-8.092 -10.769,-6.68L-10.769,1.986L-17.055,1.986L-17.055,-15.943L-11.064,-15.943L-11.064,-13.992C-10.361,-14.721 -9.521,-15.277 -8.552,-15.663C-7.582,-16.049 -6.522,-16.242 -5.376,-16.242C-3.148,-16.242 -1.355,-15.579 0,-14.256" style="fill:rgb(57,57,57);fill-rule:nonzero;"/>
                    </g>
                    <g transform="matrix(4.41459,0,0,4.41459,372.465,1094.12)">
                        <path d="M0,14.161L-9.793,14.161L-11.613,18.66L-18.296,18.66L-8.074,-4.499L-1.622,-4.499L8.636,18.66L1.82,18.66L0,14.161ZM-1.92,9.331L-4.896,1.92L-7.875,9.331L-1.92,9.331Z" style="fill:rgb(57,57,57);fill-rule:nonzero;"/>
                    </g>
                    <g transform="matrix(4.41459,0,0,4.41459,418.758,1176.5)">
                        <path d="M0,-23.159L10.951,-23.159C13.488,-23.159 15.738,-22.683 17.699,-21.735C19.661,-20.787 21.184,-19.442 22.265,-17.701C23.344,-15.957 23.887,-13.917 23.887,-11.581C23.887,-9.242 23.344,-7.201 22.265,-5.46C21.184,-3.716 19.661,-2.371 17.699,-1.424C15.738,-0.475 13.488,0 10.951,0L0,0L0,-23.159ZM10.685,-5.226C12.67,-5.226 14.265,-5.792 15.466,-6.916C16.669,-8.041 17.267,-9.595 17.267,-11.581C17.267,-13.566 16.669,-15.12 15.466,-16.245C14.265,-17.37 12.67,-17.932 10.685,-17.932L6.55,-17.932L6.55,-5.226L10.685,-5.226Z" style="fill:rgb(57,57,57);fill-rule:nonzero;"/>
                    </g>
                    <g transform="matrix(4.41459,0,0,4.41459,631.686,1074.27)">
                        <path d="M0,23.159L-0.064,10.885L-6.022,20.877L-8.932,20.877L-14.854,11.217L-14.854,23.159L-20.906,23.159L-20.906,0L-15.517,0L-7.375,13.365L0.562,0L5.955,0L6.023,23.159L0,23.159Z" style="fill:rgb(57,57,57);fill-rule:nonzero;"/>
                    </g>
                    <g transform="matrix(767.891,0,0,767.891,12.0774,1244.98)">
                        <path d="M0.675,-0.29C0.739,-0.3 0.853,-0.291 0.892,-0.277L0.892,-0.277C0.94,-0.258 0.98,-0.22 0.988,-0.18C1.012,-0.061 0.793,0.098 0.546,0.175C0.3,0.251 0.039,0.237 0.016,0.118C0.007,0.073 0.021,0.01 0.064,-0.04C0.016,0.016 -0.008,0.073 0.002,0.124C0.028,0.256 0.272,0.301 0.547,0.216C0.822,0.13 1.024,-0.053 0.998,-0.185C0.988,-0.233 0.951,-0.272 0.892,-0.29C0.892,-0.29 0.892,-0.29 0.892,-0.29C0.891,-0.291 0.891,-0.291 0.891,-0.291L0.891,-0.291C0.861,-0.298 0.83,-0.301 0.798,-0.301C0.759,-0.301 0.717,-0.297 0.675,-0.29Z" style="fill:rgb(0,68,56);fill-rule:nonzero;"/>
                    </g>
                </g>
            </g>
        </g>
    </g>
</svg>
