<?xml version="1.0" encoding="UTF-8" standalone="no"?>
<!DOCTYPE svg PUBLIC "-//W3C//DTD SVG 1.1//EN" "http://www.w3.org/Graphics/SVG/1.1/DTD/svg11.dtd">
<svg width="100%" height="100%" viewBox="0 0 1117 1377" version="1.1" xmlns="http://www.w3.org/2000/svg" xmlns:xlink="http://www.w3.org/1999/xlink" xml:space="preserve" xmlns:serif="http://www.serif.com/" style="fill-rule:evenodd;clip-rule:evenodd;stroke-linejoin:round;stroke-miterlimit:2;">
    <g transform="matrix(1,0,0,1,-11178.2,-4966)">
        <g id="Mesa-de-trabajo2" serif:id="Mesa de trabajo2" transform="matrix(0.811371,0,0,1,9192.11,2606.01)">
            <rect x="2447.87" y="2359.99" width="1376.06" height="1376.06" style="fill:none;"/>
            <g transform="matrix(1.23248,0,0,1,-15780.8,-211.755)">
                <path d="M15397.1,3931.09C15368.3,3953.24 15328.2,3953.16 15299.4,3930.89C15163.4,3823.5 14791.1,3497.04 14791.1,3137.34C14791.1,2825.27 15040.9,2571.9 15348.5,2571.9L15350.3,2571.9C15657.1,2572.91 15905.8,2825.89 15905.8,3137.34C15905.8,3497.1 15533,3823.93 15397.1,3931.09ZM15066.6,3301.12L15226.9,3461.42C15259.5,3493.97 15312.2,3493.97 15344.8,3461.42L15630.5,3175.67C15663.1,3143.14 15663.1,3090.34 15630.5,3057.82C15598,3025.29 15545.2,3025.29 15512.7,3057.82C15512.7,3057.82 15369.5,3200.99 15285.9,3284.65C15285.9,3284.65 15184.5,3183.27 15184.5,3183.27C15152,3150.75 15099.1,3150.75 15066.6,3183.27C15034.1,3215.79 15034.1,3268.6 15066.6,3301.12Z"/>
                <path d="M15397.1,3931.09C15368.3,3953.24 15328.2,3953.16 15299.4,3930.89C15163.4,3823.5 14791.1,3497.04 14791.1,3137.34C14791.1,2825.27 15040.9,2571.9 15348.5,2571.9L15350.3,2571.9C15657.1,2572.91 15905.8,2825.89 15905.8,3137.34C15905.8,3497.1 15533,3823.93 15397.1,3931.09ZM15584.7,3480.73L15474.4,3591.06C15420.3,3645.16 15348.8,3671.16 15277.9,3668.97C15302.8,3693.07 15326.7,3714.69 15348.4,3733.49C15417.6,3673.5 15508.4,3585.72 15584.7,3480.73ZM15066.6,3301.12L15226.9,3461.42C15259.5,3493.97 15312.2,3493.97 15344.8,3461.42L15630.5,3175.67C15663.1,3143.14 15663.1,3090.34 15630.5,3057.82C15598,3025.29 15545.2,3025.29 15512.7,3057.82C15512.7,3057.82 15369.5,3200.99 15285.9,3284.65C15285.9,3284.65 15184.5,3183.27 15184.5,3183.27C15152,3150.75 15099.1,3150.75 15066.6,3183.27C15034.1,3215.79 15034.1,3268.6 15066.6,3301.12ZM15596.2,2851.28C15530.7,2791.83 15444.5,2755.58 15349.8,2755.24C15349.8,2755.24 15348.3,2755.23 15348.3,2755.23C15185.5,2755.31 15047.7,2861.53 14996.2,3009.05C15086.2,2958.97 15199.3,2965.12 15283.7,3027.49L15383.1,2928.18C15441.3,2869.89 15520,2844.25 15596.2,2851.28Z"/>
            </g>
        </g>
    </g>
</svg>
