<?xml version="1.0" encoding="UTF-8" standalone="no"?>
<!DOCTYPE svg PUBLIC "-//W3C//DTD SVG 1.1//EN" "http://www.w3.org/Graphics/SVG/1.1/DTD/svg11.dtd">
<svg width="100%" height="100%" viewBox="0 0 1377 1377" version="1.1" xmlns="http://www.w3.org/2000/svg" xmlns:xlink="http://www.w3.org/1999/xlink" xml:space="preserve" xmlns:serif="http://www.serif.com/" style="fill-rule:evenodd;clip-rule:evenodd;stroke-linejoin:round;stroke-miterlimit:2;">
    <g transform="matrix(1,0,0,1,-4012.53,-4966)">
        <g id="Mesa-de-trabajo2" serif:id="Mesa de trabajo2" transform="matrix(1,0,0,1,1564.66,2606.01)">
            <rect x="2447.87" y="2359.99" width="1376.06" height="1376.06" style="fill:none;"/>
            <g transform="matrix(1,0,0,1,-4478.62,-48.1676)">
                <path d="M7614.52,3318.4C7871.72,3318.4 8080.54,3409.34 8080.54,3623.4C8080.54,3837.47 7148.5,3837.47 7148.5,3623.4C7148.5,3409.34 7357.32,3318.4 7614.52,3318.4ZM7135.76,3251.2C7119.74,3202.07 7111.09,3149.62 7111.09,3095.18C7111.09,2817.33 7336.67,2591.75 7614.52,2591.75C7892.36,2591.75 8117.94,2817.33 8117.94,3095.18C8117.94,3149.63 8109.3,3202.07 8093.28,3251.2C8077.59,3299.3 8103.91,3351.08 8152.01,3366.77C8200.11,3382.45 8251.89,3356.14 8267.58,3308.04C8289.44,3241.01 8301.28,3169.47 8301.28,3095.18C8301.28,2716.15 7993.55,2408.42 7614.52,2408.42C7235.49,2408.42 6927.76,2716.15 6927.76,3095.18C6927.76,3169.47 6939.6,3241.01 6961.46,3308.04C6977.15,3356.14 7028.93,3382.45 7077.03,3366.77C7125.13,3351.08 7151.44,3299.29 7135.76,3251.2ZM7614.52,2751.01C7751.82,2751.01 7863.3,2862.48 7863.3,2999.78C7863.3,3137.09 7751.82,3248.56 7614.52,3248.56C7477.21,3248.56 7365.74,3137.09 7365.74,2999.78C7365.74,2862.48 7477.21,2751.01 7614.52,2751.01Z" style="fill:rgb(13,13,13);"/>
            </g>
        </g>
    </g>
</svg>
