<?xml version="1.0" encoding="UTF-8" standalone="no"?>
<!DOCTYPE svg PUBLIC "-//W3C//DTD SVG 1.1//EN" "http://www.w3.org/Graphics/SVG/1.1/DTD/svg11.dtd">
<svg width="100%" height="100%" viewBox="0 0 1377 1377" version="1.1" xmlns="http://www.w3.org/2000/svg" xmlns:xlink="http://www.w3.org/1999/xlink" xml:space="preserve" xmlns:serif="http://www.serif.com/" style="fill-rule:evenodd;clip-rule:evenodd;stroke-linejoin:round;stroke-miterlimit:2;">
    <g transform="matrix(1,0,0,1,-5598.07,-4966)">
        <g id="Mesa-de-trabajo2" serif:id="Mesa de trabajo2" transform="matrix(1,0,0,1,3150.2,2606.01)">
            <rect x="2447.87" y="2359.99" width="1376.06" height="1376.06" style="fill:none;"/>
            <clipPath id="_clip1">
                <rect x="2447.87" y="2359.99" width="1376.06" height="1376.06"/>
            </clipPath>
            <g clip-path="url(#_clip1)">
                <g transform="matrix(1,0,0,1,-7078.29,-291.08)">
                    <path d="M10902.2,3126.55C10902.2,3000.45 10852.1,2879.51 10763,2790.34C10673.8,2701.17 10552.8,2651.07 10426.7,2651.07L10001.6,2651.07C9875.54,2651.07 9754.6,2701.17 9665.43,2790.34C9576.26,2879.51 9526.16,3000.45 9526.16,3126.55L9526.16,3551.64C9526.16,3677.75 9576.26,3798.69 9665.43,3887.86C9754.6,3977.03 9875.54,4027.13 10001.6,4027.13L10426.7,4027.13C10552.8,4027.13 10673.8,3977.03 10763,3887.86C10852.1,3798.69 10902.2,3677.75 10902.2,3551.64L10902.2,3126.55ZM10718.9,3126.55L10718.9,3551.64C10718.9,3629.13 10688.1,3703.44 10633.3,3758.22C10578.5,3813.01 10504.2,3843.79 10426.7,3843.79C10289.2,3843.79 10139.2,3843.79 10001.6,3843.79C9924.16,3843.79 9849.85,3813.01 9795.07,3758.22C9740.28,3703.44 9709.5,3629.13 9709.5,3551.64L9709.5,3126.55C9709.5,3049.07 9740.28,2974.76 9795.07,2919.97C9849.85,2865.18 9924.16,2834.4 10001.6,2834.4L10426.7,2834.4C10504.2,2834.4 10578.5,2865.18 10633.3,2919.97C10688.1,2974.76 10718.9,3049.07 10718.9,3126.55ZM10031.5,3430.25L10031.5,3430.12L10398.8,3430.12L10398.8,3430.25C10449.3,3430.54 10490.2,3471.62 10490.2,3522.19C10490.2,3572.94 10449,3614.14 10398.3,3614.14C10397.7,3614.14 10397.1,3614.13 10396.4,3614.12L10033.3,3614.12C10032.7,3614.13 10032.1,3614.14 10031.5,3614.14C9980.71,3614.14 9939.52,3572.94 9939.52,3522.19C9939.52,3471.45 9980.71,3430.25 10031.5,3430.25ZM10031.5,3064.91L10031.5,3064.78L10398.8,3064.78L10398.8,3064.91C10449.3,3065.2 10490.2,3106.28 10490.2,3156.85C10490.2,3207.6 10449,3248.79 10398.3,3248.79C10397.7,3248.79 10397.1,3248.79 10396.4,3248.78L10033.3,3248.78C10032.7,3248.79 10032.1,3248.79 10031.5,3248.79C9980.71,3248.79 9939.52,3207.6 9939.52,3156.85C9939.52,3106.11 9980.71,3064.91 10031.5,3064.91Z" style="fill:rgb(13,13,13);"/>
                </g>
            </g>
        </g>
    </g>
</svg>
